<svg width="48" height="51" viewBox="0 0 48 51" fill="none" xmlns="http://www.w3.org/2000/svg">
<path d="M46.5587 21.7817H1.83861C1.35654 21.7817 1.15306 21.1075 1.53534 20.9143L23.0048 7.9046C23.3053 7.71538 23.6543 7.61508 24.012 7.61508C24.3698 7.61508 24.7221 7.71538 25.0288 7.9046L46.9298 20.9143C47.2227 21.1075 47.0407 21.7817 46.5587 21.7817Z" fill="#63239D" stroke="black" stroke-width="0.958904" stroke-linecap="round" stroke-linejoin="round"/>
<path d="M43.4704 21.7817H4.92249L4.95444 23.7088C4.94882 23.8375 4.97058 23.9663 5.01829 24.0867C5.066 24.2072 5.13857 24.3166 5.2312 24.4077C5.32384 24.4988 5.43443 24.5696 5.55568 24.6153C5.67692 24.661 5.80607 24.6806 5.93457 24.6729H42.5587C42.6871 24.68 42.8151 24.6598 42.9342 24.6139C43.0534 24.5679 43.1611 24.497 43.2503 24.406C43.3394 24.3149 43.4079 24.2058 43.4514 24.0856C43.4948 23.9655 43.5122 23.8371 43.5024 23.7088L43.4704 21.7817Z" fill="#F7F7F7" stroke="black" stroke-width="0.958904" stroke-linecap="round" stroke-linejoin="round"/>
<path d="M42.8623 42.982H6.23822C6.10946 42.9742 5.98097 42.9938 5.86123 43.0395C5.7415 43.0852 5.63325 43.156 5.54364 43.2471C5.45403 43.3382 5.38509 43.4476 5.34138 43.5681C5.29767 43.6886 5.28018 43.8174 5.29006 43.946L5.32202 45.8731H43.87L43.838 43.946C43.8436 43.8178 43.8219 43.6894 43.7745 43.5692C43.7271 43.4491 43.6549 43.3399 43.5628 43.2488C43.4706 43.1578 43.3606 43.087 43.2399 43.041C43.1191 42.995 42.9905 42.9749 42.8623 42.982Z" fill="#F7F7F7" stroke="black" stroke-width="0.958904" stroke-linecap="round" stroke-linejoin="round"/>
<path d="M45.8016 45.873H3.39447C3.26571 45.8653 3.13722 45.8849 3.01748 45.9306C2.89775 45.9763 2.7895 46.0471 2.69989 46.1382C2.61028 46.2293 2.54134 46.3387 2.49763 46.4592C2.45392 46.5796 2.43643 46.7084 2.44631 46.8371L2.49424 49.7273H46.8288L46.7809 46.8371C46.7865 46.7085 46.7648 46.5798 46.7171 46.4594C46.6695 46.339 46.597 46.2296 46.5044 46.1385C46.4119 46.0474 46.3014 45.9767 46.1803 45.9309C46.0591 45.8851 45.9301 45.8654 45.8016 45.873Z" fill="#63239D" stroke="black" stroke-width="0.958904"/>
<path d="M28.1329 26.6L28.1009 24.6729H20.3914L20.4233 26.6C20.4177 26.7286 20.4394 26.8574 20.4872 26.9779C20.5349 27.0983 20.6074 27.2078 20.7001 27.2989C20.7927 27.39 20.9033 27.4607 21.0245 27.5064C21.1458 27.5521 21.2749 27.5717 21.4034 27.564L21.6111 40.0899C21.4823 40.0821 21.3537 40.1018 21.2339 40.1475C21.1141 40.1933 21.0058 40.2641 20.9162 40.3553C20.8266 40.4465 20.7577 40.5561 20.714 40.6766C20.6704 40.7972 20.653 40.9261 20.663 41.0548L20.695 42.9819H28.4045L28.3726 41.0548C28.3783 40.9262 28.3567 40.7974 28.3091 40.6769C28.2615 40.5564 28.189 40.4469 28.0965 40.3557C28.0039 40.2645 27.8934 40.1936 27.7722 40.1478C27.651 40.102 27.5219 40.0823 27.3933 40.0899L27.1856 27.564C27.3143 27.5716 27.4427 27.5519 27.5623 27.5061C27.682 27.4604 27.7901 27.3896 27.8796 27.2985C27.9691 27.2074 28.038 27.0981 28.0816 26.9777C28.1253 26.8572 28.1428 26.7285 28.1329 26.6Z" fill="#63239D" stroke="black" stroke-width="0.958904" stroke-linecap="round" stroke-linejoin="round"/>
<path d="M15.6035 26.6L15.5715 24.6729H7.86193L7.89389 26.6C7.88827 26.7286 7.91003 26.8574 7.95774 26.9779C8.00544 27.0983 8.07801 27.2078 8.17065 27.2989C8.26328 27.39 8.37387 27.4607 8.49512 27.5064C8.61637 27.5521 8.74551 27.5717 8.87402 27.564L9.08172 40.0899C8.95288 40.0821 8.82431 40.1018 8.70451 40.1475C8.58472 40.1933 8.47643 40.2641 8.3868 40.3553C8.29718 40.4465 8.22826 40.5561 8.18461 40.6766C8.14095 40.7972 8.12356 40.9261 8.13358 41.0548L8.16554 42.9819H15.8751L15.8432 41.0548C15.8489 40.9262 15.8273 40.7974 15.7797 40.6769C15.7321 40.5564 15.6596 40.4469 15.5671 40.3557C15.4745 40.2645 15.364 40.1936 15.2428 40.1478C15.1216 40.102 14.9924 40.0823 14.8639 40.0899L14.6562 27.564C14.7849 27.5716 14.9133 27.5519 15.0329 27.5061C15.1525 27.4604 15.2607 27.3896 15.3502 27.2985C15.4397 27.2074 15.5086 27.0981 15.5522 26.9777C15.5959 26.8572 15.6134 26.7285 15.6035 26.6Z" fill="#63239D" stroke="black" stroke-width="0.958904" stroke-linecap="round" stroke-linejoin="round"/>
<path d="M40.6623 26.6L40.6304 24.6729H32.9208L32.9527 26.6C32.9471 26.7286 32.9689 26.8574 33.0166 26.9779C33.0643 27.0983 33.1369 27.2078 33.2295 27.2989C33.3221 27.39 33.4327 27.4607 33.554 27.5064C33.6752 27.5521 33.8044 27.5717 33.9329 27.564L34.1406 40.0899C34.0117 40.0821 33.8831 40.1018 33.7634 40.1475C33.6436 40.1933 33.5353 40.2641 33.4456 40.3553C33.356 40.4465 33.2871 40.5561 33.2434 40.6766C33.1998 40.7972 33.1824 40.9261 33.1924 41.0548L33.2244 42.9819H40.934L40.902 41.0548C40.9078 40.9262 40.8861 40.7974 40.8385 40.6769C40.7909 40.5564 40.7184 40.4469 40.6259 40.3557C40.5333 40.2645 40.4228 40.1936 40.3016 40.1478C40.1804 40.102 40.0513 40.0823 39.9228 40.0899L39.715 27.564C39.8437 27.5716 39.9721 27.5519 40.0918 27.5061C40.2114 27.4604 40.3195 27.3896 40.409 27.2985C40.4985 27.2074 40.5674 27.0981 40.6111 26.9777C40.6547 26.8572 40.6722 26.7285 40.6623 26.6Z" fill="#63239D" stroke="black" stroke-width="0.958904" stroke-linecap="round" stroke-linejoin="round"/>
<path d="M16.4087 16.9633H31.8296" stroke="black" stroke-width="3.83562" stroke-miterlimit="10" stroke-linecap="round" stroke-linejoin="round"/>
<path d="M14.4489 9.4463C14.3273 10.7978 14.4899 12.1645 14.9263 13.4589C15.3626 14.7532 16.0632 15.9466 16.983 16.9626H31.3476C32.6103 15.5075 33.3955 13.6965 33.5995 11.7686C33.8035 9.84066 33.4168 7.88651 32.4904 6.16412C31.564 4.44173 30.1415 3.03208 28.4106 2.12128C26.6798 1.21048 24.722 0.841342 22.7957 1.06261C20.6359 1.27026 18.6261 2.21764 17.1055 3.74493C15.5849 5.27222 14.6466 7.28593 14.4489 9.4463Z" fill="#F053A0" stroke="black" stroke-width="0.958904"/>
<path d="M24.9527 15.132L24.9959 17.7334H23.454L23.4108 15.132C22.3282 14.9285 21.3192 14.427 20.4979 13.6842L21.6304 12.2391C22.3352 12.9352 23.2701 13.3475 24.2522 13.3954C25.0232 13.3954 25.4023 13.0099 25.3943 12.5279C25.3847 11.9494 24.8978 11.6605 23.735 11.2751C22.0885 10.7931 20.6335 10.2118 20.6032 8.38394C20.5835 7.65707 20.8507 6.95639 21.3469 6.43343C21.8432 5.91047 22.5287 5.60726 23.2552 5.58937L23.2249 3.76059H24.7642L24.7945 5.59114C25.7118 5.77572 26.5766 6.17171 27.3198 6.74742L26.1899 8.19078C25.5419 7.70922 24.7628 7.43971 23.9617 7.41993C23.1908 7.41993 22.8101 7.70907 22.8197 8.28736C22.8293 8.86594 23.3145 9.05821 24.3808 9.44364C26.3178 10.0222 27.5788 10.5069 27.6107 12.4314C27.5922 13.1382 27.3088 13.808 26.8166 14.3081C26.3244 14.8082 25.6592 15.1022 24.9527 15.132Z" fill="#F5FAFF"/>
</svg>
