<svg width="51" height="46" viewBox="0 0 51 46" fill="none" xmlns="http://www.w3.org/2000/svg">
<path d="M17.5434 12.4069C16.4253 12.6117 15.3464 12.9907 14.346 13.5303C9.67954 12.4069 4.06251 13.8759 3.4576 15.2586C2.93911 16.382 5.35875 18.7152 7.00065 20.0979C6.21346 21.5812 5.68729 23.189 5.44517 24.8507C3.80327 25.0236 1.55646 25.5421 1.21079 26.9247C0.605882 29.2579 1.21079 34.7021 4.23534 35.307C5.54914 35.5196 6.8802 35.6064 8.21047 35.5663C9.38032 36.9187 10.75 38.0844 12.272 39.0229L10.8894 44.9856H19.7902L21 41.7882C21.6871 41.8887 22.3797 41.9464 23.074 41.9611C24.2353 41.9023 25.3906 41.7579 26.5306 41.529L25.6665 44.9856H34.1352C34.1352 44.9856 40.7892 36.2576 41.7398 31.5048C42.4288 30.046 42.7831 28.4516 42.7768 26.8383C42.604 23.4681 38.1967 8.7774 17.5434 12.4069Z" fill="#63239D" stroke="black" stroke-width="1.52426"/>
<path d="M28.3453 1.00001C27.2782 0.998755 26.2214 1.20801 25.2353 1.61579C24.2492 2.02357 23.3532 2.62186 22.5986 3.37641C21.8441 4.13096 21.2458 5.02694 20.838 6.01304C20.4302 6.99914 20.221 8.056 20.2222 9.12309C20.2283 10.5013 20.5794 11.856 21.2436 13.0636C21.9078 14.2712 22.8638 15.2932 24.0245 16.0364C26.0901 15.9726 28.1473 16.3252 30.0736 17.0733C31.9016 16.6918 33.5429 15.6938 34.7228 14.2465C35.9027 12.7992 36.5494 10.9904 36.5548 9.12309C36.5231 6.96363 35.6453 4.90283 34.1101 3.38381C32.575 1.86478 30.505 1.00883 28.3453 1.00001Z" fill="#F053A0" stroke="black" stroke-width="1.52426"/>
<path d="M31.2835 6.70348C31.2835 6.70348 31.0243 5.40724 28.3454 5.40724C26.2714 5.40724 25.4072 6.53065 25.4072 7.56764C25.4072 8.60463 26.617 9.29595 28.3454 9.29595C30.6786 9.29595 31.2835 10.0737 31.2835 11.0243C31.2835 12.3205 29.9008 13.1847 28.3454 13.1847C27.7885 13.2128 27.2327 13.1102 26.7225 12.8851C26.2123 12.66 25.7619 12.3187 25.4072 11.8884" stroke="white" stroke-width="3.04851" stroke-miterlimit="10" stroke-linecap="round" stroke-linejoin="round"/>
<path d="M28.259 4.37021V13.8759" stroke="white" stroke-width="3.04851" stroke-miterlimit="10" stroke-linecap="round" stroke-linejoin="round"/>
<path d="M11.84 24.9371C12.3172 24.9371 12.7041 24.5503 12.7041 24.073C12.7041 23.5957 12.3172 23.2088 11.84 23.2088C11.3627 23.2088 10.9758 23.5957 10.9758 24.073C10.9758 24.5503 11.3627 24.9371 11.84 24.9371Z" stroke="black" stroke-width="3.04851" stroke-miterlimit="10" stroke-linecap="round" stroke-linejoin="round"/>
<path d="M40.8757 23.5545C40.8757 23.5545 46.8384 23.9002 46.4927 19.6658C46.2335 16.5548 44.678 15.9499 43.641 17.2462C42.7768 18.3696 43.641 21.4805 47.2704 21.3077C50.8999 21.1349 49.8629 16.5548 49.8629 16.5548" stroke="black" stroke-width="1.52426" stroke-miterlimit="10" stroke-linecap="round" stroke-linejoin="round"/>
<path d="M20.9136 16.2956C20.9136 16.2956 27.8269 14.9994 31.7156 18.1103" stroke="black" stroke-width="1.52426" stroke-miterlimit="10" stroke-linecap="round" stroke-linejoin="round"/>
</svg>
