<svg width="52" height="52" viewBox="0 0 52 52" fill="none" xmlns="http://www.w3.org/2000/svg">
<path d="M25.6307 1C20.7592 1 15.9971 2.44456 11.9466 5.15101C7.89611 7.85746 4.73914 11.7042 2.87491 16.2049C1.01067 20.7056 0.522903 25.658 1.47328 30.4358C2.42366 35.2137 4.7695 39.6025 8.21416 43.0471C11.6588 46.4918 16.0476 48.8376 20.8255 49.788C25.6033 50.7384 30.5557 50.2506 35.0564 48.3864C39.5571 46.5222 43.4038 43.3652 46.1103 39.3147C48.8167 35.2642 50.2613 30.5021 50.2613 25.6306C50.2538 19.1005 47.6564 12.84 43.0388 8.22246C38.4213 3.60494 32.1608 1.00752 25.6307 1Z" fill="#63239D" stroke="black" stroke-width="1.52426"/>
<path d="M25.6307 8.57866C22.2582 8.57866 18.9613 9.57874 16.1572 11.4524C13.353 13.3261 11.1674 15.9893 9.87675 19.1051C8.58612 22.221 8.24844 25.6496 8.90639 28.9573C9.56435 32.2651 11.1884 35.3035 13.5732 37.6882C15.9579 40.073 18.9963 41.697 22.3041 42.355C25.6118 43.0129 29.0404 42.6753 32.1562 41.3846C35.2721 40.094 37.9352 37.9084 39.8089 35.1042C41.6826 32.3 42.6827 29.0032 42.6827 25.6306C42.6777 21.1097 40.8795 16.7754 37.6828 13.5786C34.486 10.3818 30.1517 8.58367 25.6307 8.57866Z" fill="#F7F7F7" stroke="black" stroke-width="1.52426"/>
<path d="M33.1497 24.4938C33.6277 23.4968 33.9152 22.4192 33.9975 21.3165C34.013 20.4776 33.8591 19.6442 33.5452 18.8662C33.2312 18.0881 32.7636 17.3813 32.1704 16.788C31.5771 16.1947 30.8703 15.7272 30.0922 15.4132C29.3141 15.0993 28.4808 14.9454 27.6419 14.9608C27.6591 14.6777 27.6159 14.3942 27.5153 14.1291C27.4146 13.8639 27.2588 13.6232 27.058 13.4228C26.8573 13.2224 26.6163 13.067 26.3509 12.9668C26.0856 12.8666 25.802 12.824 25.5189 12.8417C25.2363 12.8247 24.9533 12.8678 24.6886 12.9683C24.4239 13.0687 24.1836 13.2241 23.9834 13.4243C23.7832 13.6245 23.6277 13.8649 23.5273 14.1296C23.4268 14.3943 23.3837 14.6773 23.4007 14.9599H19.1633C18.6013 14.9599 18.0624 15.1831 17.6651 15.5804C17.2678 15.9778 17.0446 16.5167 17.0446 17.0786C17.0446 17.6405 17.2678 18.1794 17.6651 18.5768C18.0624 18.9741 18.6013 19.1973 19.1633 19.1973V31.9086C18.6013 31.9086 18.0624 32.1318 17.6651 32.5292C17.2678 32.9265 17.0446 33.4654 17.0446 34.0273C17.0446 34.5892 17.2678 35.1281 17.6651 35.5255C18.0624 35.9228 18.6013 36.146 19.1633 36.146H23.4007C23.3837 36.4286 23.4268 36.7116 23.5273 36.9763C23.6277 37.241 23.7832 37.4814 23.9834 37.6816C24.1836 37.8818 24.4239 38.0372 24.6886 38.1377C24.9533 38.2381 25.2363 38.2813 25.5189 38.2643C25.8016 38.2814 26.0847 38.2384 26.3495 38.138C26.6143 38.0376 26.8548 37.8822 27.0551 37.682C27.2554 37.4818 27.4109 37.2413 27.5114 36.9766C27.6119 36.7118 27.6551 36.4287 27.6381 36.146H29.7563C31.1302 36.158 32.4704 35.7208 33.5729 34.901C34.6754 34.0812 35.48 32.9237 35.8641 31.6045C36.2483 30.2854 36.191 28.8769 35.701 27.5934C35.211 26.3098 34.3151 25.2214 33.1497 24.4938ZM27.6419 19.1973C28.2038 19.1973 28.7427 19.4205 29.14 19.8179C29.5374 20.2152 29.7606 20.7541 29.7606 21.316C29.7606 21.8779 29.5374 22.4168 29.14 22.8142C28.7427 23.2115 28.2038 23.4347 27.6419 23.4347H23.4007V19.1973H27.6419ZM29.7601 31.9086H23.4007V27.6712H29.7563C30.3183 27.6712 30.8572 27.8944 31.2545 28.2918C31.6518 28.6891 31.875 29.228 31.875 29.7899C31.875 30.3518 31.6518 30.8907 31.2545 31.2881C30.8572 31.6854 30.3183 31.9086 29.7563 31.9086H29.7601Z" fill="#F053A0"/>
</svg>
