<svg width="46" height="46" viewBox="0 0 46 46" fill="none" xmlns="http://www.w3.org/2000/svg">
<path d="M23 1C18.6488 1 14.3953 2.29028 10.7775 4.70767C7.15958 7.12506 4.33979 10.561 2.67466 14.581C1.00953 18.6009 0.573859 23.0244 1.42273 27.292C2.27161 31.5596 4.3669 35.4796 7.44366 38.5563C10.5204 41.6331 14.4404 43.7284 18.708 44.5773C22.9756 45.4261 27.3991 44.9905 31.419 43.3253C35.439 41.6602 38.8749 38.8404 41.2923 35.2225C43.7097 31.6047 45 27.3512 45 23C44.9933 17.1673 42.6733 11.5754 38.5489 7.45107C34.4246 3.32673 28.8327 1.00672 23 1Z" fill="#63239D" stroke="black" stroke-width="1.52426"/>
<path d="M23.0001 7.76923C19.9877 7.76923 17.043 8.6625 14.5383 10.3361C12.0336 12.0097 10.0814 14.3884 8.92867 17.1714C7.77589 19.9545 7.47427 23.0169 8.06195 25.9714C8.64963 28.9258 10.1002 31.6397 12.2303 33.7698C14.3603 35.8998 17.0742 37.3504 20.0287 37.9381C22.9832 38.5258 26.0456 38.2242 28.8286 37.0714C31.6117 35.9186 33.9904 33.9664 35.664 31.4618C37.3376 28.9571 38.2308 26.0124 38.2308 23C38.2263 18.9619 36.6202 15.0905 33.7649 12.2352C30.9095 9.37981 27.0381 7.77371 23.0001 7.76923Z" fill="#F7F7F7" stroke="black" stroke-width="1.52426"/>
<path d="M25.0747 27.1978C25.1076 26.5634 24.8907 25.9413 24.4706 25.4649C23.8815 24.9251 23.1814 24.5207 22.4195 24.2802C21.5678 23.9666 20.7344 23.6053 19.9233 23.198C19.2698 22.8711 18.6645 22.4557 18.1244 21.9635C17.6269 21.5025 17.2292 20.9444 16.9559 20.3236C16.6611 19.6131 16.5187 18.8486 16.5379 18.0796C16.5136 17.4013 16.6284 16.7251 16.875 16.0927C17.1216 15.4603 17.495 14.8851 17.9721 14.4022C19.0038 13.4123 20.3528 12.8196 21.7798 12.7294V9.88802H23.9045V12.7649C25.3382 12.9148 26.6572 13.6171 27.5819 14.7229C28.5068 15.928 28.977 17.4208 28.9095 18.9385H25.0747C25.1385 18.0917 24.9061 17.2492 24.4173 16.5549C24.2047 16.2965 23.9354 16.0908 23.6302 15.9537C23.3251 15.8166 22.9924 15.7519 22.6581 15.7646C22.3496 15.7454 22.0405 15.7904 21.7502 15.8968C21.46 16.0031 21.1949 16.1684 20.9717 16.3822C20.7645 16.6131 20.605 16.8827 20.5025 17.1755C20.4 17.4682 20.3564 17.7784 20.3743 18.0881C20.3603 18.3832 20.4047 18.6781 20.5049 18.956C20.6051 19.2339 20.7591 19.4893 20.9582 19.7076C21.593 20.2617 22.3304 20.6857 23.1286 20.9557C24.0212 21.304 24.8923 21.7052 25.7373 22.1572C26.3705 22.4975 26.9518 22.9266 27.4634 23.4316C27.9257 23.8948 28.2913 24.4453 28.5389 25.0511C28.7988 25.7254 28.925 26.4439 28.9103 27.1665C28.9377 27.8409 28.827 28.5139 28.585 29.1441C28.343 29.7742 27.9749 30.3483 27.5032 30.8312C26.4457 31.8223 25.0732 32.4098 23.6261 32.4905V35.1415H21.5166V32.5082C19.9191 32.4152 18.4146 31.7258 17.3011 30.5765C16.2646 29.367 15.7311 27.8063 15.8102 26.2154H19.6449C19.5862 27.0883 19.8537 27.9519 20.3955 28.6388C20.6713 28.9291 21.0075 29.1554 21.3803 29.3016C21.7532 29.4478 22.1535 29.5104 22.5532 29.4849C23.2246 29.522 23.8848 29.301 24.3986 28.8672C24.6257 28.6547 24.8037 28.3952 24.9205 28.1069C25.0372 27.8187 25.0899 27.5084 25.0747 27.1978Z" fill="#F053A0"/>
</svg>
