<svg width="52" height="45" viewBox="0 0 52 45" fill="none" xmlns="http://www.w3.org/2000/svg">
<path d="M0.734035 43.2743L12.9011 19.6581L23.98 21.7997L31.1621 10.5819H43.0712L49.44 1.20148" stroke="black" stroke-width="0.958904" stroke-linecap="round" stroke-linejoin="round"/>
<path d="M42.5791 1.55962L49.5019 1L49.6309 8.77835" stroke="black" stroke-width="0.958904" stroke-linecap="round" stroke-linejoin="round"/>
<path d="M31.4645 18.1441C35.0061 18.1441 37.8295 15.2734 37.7708 11.7323C37.7121 8.19125 34.7934 5.32062 31.2518 5.32062C27.7103 5.32062 24.8868 8.19125 24.9456 11.7323C25.0043 15.2734 27.9229 18.1441 31.4645 18.1441Z" fill="#F053A0"/>
<path d="M31.457 17.6861C34.7456 17.6861 37.3673 15.0205 37.3128 11.7323C37.2583 8.44415 34.5481 5.77856 31.2595 5.77856C27.9709 5.77856 25.3491 8.44415 25.4037 11.7323C25.4582 15.0205 28.1683 17.6861 31.457 17.6861Z" stroke="black" stroke-width="0.958904"/>
<path d="M34.1787 9.68057L34.1883 10.2595C34.1899 10.2838 34.1864 10.3082 34.1779 10.3309C34.1695 10.3537 34.1564 10.3744 34.1394 10.3916C34.1225 10.4089 34.1021 10.4223 34.0794 10.4311C34.0568 10.4399 34.0325 10.4438 34.0081 10.4427H33.0545C32.9908 10.9605 32.7377 11.4335 32.3436 11.7708C31.9015 12.1307 31.3595 12.3483 30.7875 12.3955C31.4307 13.0672 32.316 14.0812 33.4433 15.4374C33.4691 15.4621 33.4857 15.4948 33.4905 15.53C33.4952 15.5651 33.4878 15.6007 33.4694 15.6307C33.4568 15.663 33.4343 15.6904 33.4049 15.7088C33.3756 15.7272 33.3411 15.7358 33.3062 15.7332H32.205C32.1777 15.7344 32.1503 15.7289 32.1254 15.717C32.1004 15.7052 32.0786 15.6875 32.0619 15.6655C30.8785 14.2769 29.9183 13.1966 29.1811 12.4248C29.1643 12.4086 29.1508 12.3893 29.1416 12.3678C29.1325 12.3464 29.1277 12.3234 29.1278 12.3002L29.1158 11.5794C29.115 11.5308 29.1336 11.4842 29.1674 11.4498C29.2011 11.4155 29.2474 11.3962 29.296 11.3962H29.9318C30.3481 11.4141 30.7607 11.3304 31.1342 11.1525C31.2751 11.0825 31.3988 10.983 31.4971 10.8606C31.5954 10.7381 31.666 10.5956 31.7042 10.4427H29.2775C29.2531 10.4438 29.2287 10.4399 29.2058 10.4311C29.1829 10.4223 29.162 10.4089 29.1444 10.3916C29.1269 10.3744 29.1131 10.3537 29.1039 10.3309C29.0948 10.3082 29.0904 10.2838 29.0912 10.2595L29.0816 9.68057C29.08 9.6562 29.0835 9.63185 29.092 9.60909C29.1004 9.58634 29.1135 9.56566 29.1305 9.54841C29.1474 9.53116 29.1679 9.5177 29.1905 9.50891C29.2131 9.50012 29.2374 9.4962 29.2618 9.49738H31.6061C31.3834 9.06993 30.8726 8.8562 30.0738 8.8562H29.2493C29.2007 8.8562 29.1538 8.8369 29.1189 8.80254C29.0839 8.76819 29.0639 8.72159 29.063 8.67301L29.0506 7.92283C29.049 7.89847 29.0526 7.87412 29.061 7.85136C29.0694 7.8286 29.0825 7.80794 29.0995 7.79069C29.1164 7.77344 29.1369 7.75998 29.1595 7.75119C29.1821 7.7424 29.2064 7.73847 29.2308 7.73964H33.9532C33.9776 7.73847 34.002 7.7424 34.0249 7.75119C34.0478 7.75998 34.0687 7.77344 34.0863 7.79069C34.1038 7.80794 34.1176 7.8286 34.1268 7.85136C34.1359 7.87412 34.1403 7.89847 34.1395 7.92283L34.1491 8.50173C34.1507 8.52609 34.1471 8.55044 34.1387 8.5732C34.1303 8.59596 34.1172 8.61662 34.1002 8.63387C34.0833 8.65112 34.0628 8.66458 34.0402 8.67337C34.0176 8.68216 33.9933 8.68609 33.9689 8.68491H32.647C32.8345 8.9254 32.9645 9.20501 33.027 9.50195H33.998C34.0224 9.50077 34.0468 9.50471 34.0697 9.5135C34.0926 9.52228 34.1135 9.53574 34.131 9.55299C34.1486 9.57024 34.1624 9.59092 34.1716 9.61368C34.1807 9.63644 34.1851 9.66077 34.1843 9.68514L34.1787 9.68057Z" fill="#F5FAFF"/>
<path d="M12.3633 26.3877C15.9049 26.3877 18.7283 23.5171 18.6696 19.976C18.6109 16.4349 15.6922 13.5643 12.1506 13.5643C8.60906 13.5643 5.78564 16.4349 5.84436 19.976C5.90308 23.5171 8.8217 26.3877 12.3633 26.3877Z" fill="#F053A0"/>
<path d="M12.3556 25.9297C15.6442 25.9297 18.266 23.2641 18.2115 19.9759C18.1569 16.6878 15.4468 14.0222 12.1582 14.0222C8.86956 14.0222 6.24781 16.6878 6.30234 19.9759C6.35686 23.2641 9.06702 25.9297 12.3556 25.9297Z" stroke="black" stroke-width="0.958904"/>
<path d="M15.0775 17.9243L15.0871 18.5031C15.0887 18.5275 15.0852 18.5518 15.0767 18.5746C15.0683 18.5974 15.0552 18.618 15.0383 18.6353C15.0213 18.6525 15.0009 18.666 14.9782 18.6748C14.9556 18.6836 14.9313 18.6875 14.9069 18.6863H13.9533C13.8896 19.2042 13.6365 19.6772 13.2425 20.0145C12.8003 20.3744 12.2583 20.592 11.6863 20.6392C12.3295 21.3109 13.2148 22.3248 14.3421 23.6811C14.3679 23.7058 14.3845 23.7385 14.3893 23.7737C14.394 23.8088 14.3866 23.8444 14.3682 23.8743C14.3556 23.9067 14.3331 23.934 14.3037 23.9525C14.2744 23.9709 14.2399 23.9795 14.205 23.9769H13.1038C13.0765 23.9781 13.0491 23.9725 13.0242 23.9607C12.9992 23.9489 12.9774 23.9312 12.9607 23.9091C11.7773 22.5205 10.8171 21.4403 10.0799 20.6685C10.0631 20.6523 10.0496 20.6329 10.0405 20.6115C10.0313 20.5901 10.0265 20.5671 10.0266 20.5439L10.0146 19.823C10.0138 19.7745 10.0324 19.7279 10.0662 19.6935C10.0999 19.6591 10.1462 19.6398 10.1948 19.6398H10.8306C11.2469 19.6577 11.6595 19.5741 12.033 19.3962C12.1739 19.3262 12.2976 19.2267 12.3959 19.1042C12.4942 18.9818 12.5648 18.8393 12.603 18.6863H10.1763C10.1519 18.6875 10.1275 18.6836 10.1046 18.6748C10.0817 18.666 10.0608 18.6525 10.0432 18.6353C10.0257 18.618 10.0119 18.5974 10.0027 18.5746C9.99357 18.5518 9.98923 18.5275 9.99 18.5031L9.9804 17.9243C9.97882 17.8999 9.98235 17.8755 9.99077 17.8528C9.99918 17.83 10.0123 17.8093 10.0293 17.7921C10.0462 17.7748 10.0667 17.7614 10.0893 17.7526C10.1119 17.7438 10.1362 17.7399 10.1606 17.7411H12.5049C12.2822 17.3136 11.7714 17.0999 10.9726 17.0999H10.1481C10.0995 17.0999 10.0526 17.0806 10.0177 17.0462C9.98275 17.0119 9.96266 16.9653 9.96185 16.9167L9.94941 16.1665C9.94783 16.1421 9.95136 16.1178 9.95977 16.095C9.96819 16.0723 9.9813 16.0516 9.99827 16.0344C10.0152 16.0171 10.0357 16.0037 10.0583 15.9949C10.0809 15.9861 10.1052 15.9821 10.1296 15.9833H14.852C14.8764 15.9821 14.9008 15.9861 14.9237 15.9949C14.9466 16.0037 14.9675 16.0171 14.9851 16.0344C15.0026 16.0516 15.0164 16.0723 15.0256 16.095C15.0347 16.1178 15.0391 16.1421 15.0383 16.1665L15.0479 16.7454C15.0495 16.7698 15.046 16.7941 15.0375 16.8169C15.0291 16.8396 15.016 16.8603 14.999 16.8776C14.9821 16.8948 14.9616 16.9083 14.939 16.9171C14.9164 16.9258 14.8921 16.9298 14.8677 16.9286H13.5458C13.7333 17.1691 13.8633 17.4487 13.9258 17.7456H14.8968C14.9212 17.7445 14.9456 17.7484 14.9685 17.7572C14.9914 17.766 15.0123 17.7794 15.0299 17.7967C15.0474 17.8139 15.0612 17.8346 15.0704 17.8574C15.0795 17.8801 15.0839 17.9045 15.0831 17.9288L15.0775 17.9243Z" fill="#F5FAFF"/>
<path d="M23.8692 40.1271H13.7922L13.853 43.791H23.93L23.8692 40.1271Z" fill="#63239D"/>
<path d="M23.4186 40.5851H14.2577L14.3033 43.333H23.4641L23.4186 40.5851Z" stroke="black" stroke-width="0.958904" stroke-linecap="round" stroke-linejoin="round"/>
<path d="M23.8235 37.3793H13.7466L13.8073 41.0431H23.8843L23.8235 37.3793Z" fill="#63239D"/>
<path d="M23.3732 37.8372H14.2123L14.2578 40.5851H23.4187L23.3732 37.8372Z" stroke="black" stroke-width="0.958904" stroke-linecap="round" stroke-linejoin="round"/>
<path d="M36.6943 40.1271H26.6173L26.6781 43.791H36.755L36.6943 40.1271Z" fill="#F053A0"/>
<path d="M36.2438 40.5851H27.0829L27.1285 43.333H36.2893L36.2438 40.5851Z" stroke="black" stroke-width="0.958904" stroke-linecap="round" stroke-linejoin="round"/>
<path d="M36.6032 34.6314H26.5262L26.587 38.2952H36.664L36.6032 34.6314Z" fill="#F053A0"/>
<path d="M36.1527 35.0894H26.9918L27.0374 37.8372H36.1983L36.1527 35.0894Z" stroke="black" stroke-width="0.958904" stroke-linecap="round" stroke-linejoin="round"/>
<path d="M36.6486 37.3792H26.5717L26.6324 41.0431H36.7094L36.6486 37.3792Z" fill="#F053A0"/>
<path d="M36.1982 37.8372H27.0374L27.0829 40.5851H36.2438L36.1982 37.8372Z" stroke="black" stroke-width="0.958904" stroke-linecap="round" stroke-linejoin="round"/>
<path d="M36.5576 31.8835H26.4806L26.5413 35.5474H36.6183L36.5576 31.8835Z" fill="#F053A0"/>
<path d="M36.1072 32.3414H26.9463L26.9919 35.0893H36.1527L36.1072 32.3414Z" stroke="black" stroke-width="0.958904" stroke-linecap="round" stroke-linejoin="round"/>
<path d="M49.5195 40.1271H39.4425L39.5033 43.791H49.5802L49.5195 40.1271Z" fill="#63239D"/>
<path d="M49.069 40.5851H39.9081L39.9536 43.333H49.1145L49.069 40.5851Z" stroke="black" stroke-width="0.958904" stroke-linecap="round" stroke-linejoin="round"/>
<path d="M49.4284 34.6313H39.3514L39.4122 38.2952H49.4892L49.4284 34.6313Z" fill="#63239D"/>
<path d="M48.978 35.0894H39.8171L39.8627 37.8372H49.0236L48.978 35.0894Z" stroke="black" stroke-width="0.958904" stroke-linecap="round" stroke-linejoin="round"/>
<path d="M49.3372 29.1356H39.2603L39.321 32.7994H49.398L49.3372 29.1356Z" fill="#63239D"/>
<path d="M48.8868 29.5936H39.726L39.7715 32.3415H48.9324L48.8868 29.5936Z" stroke="black" stroke-width="0.958904" stroke-linecap="round" stroke-linejoin="round"/>
<path d="M49.4739 37.3792H39.397L39.4577 41.0431H49.5347L49.4739 37.3792Z" fill="#63239D"/>
<path d="M49.0235 37.8372H39.8627L39.9082 40.5851H49.0691L49.0235 37.8372Z" stroke="black" stroke-width="0.958904" stroke-linecap="round" stroke-linejoin="round"/>
<path d="M49.3829 31.8835H39.3059L39.3667 35.5473H49.4436L49.3829 31.8835Z" fill="#63239D"/>
<path d="M48.9324 32.3414H39.7715L39.8171 35.0893H48.9779L48.9324 32.3414Z" stroke="black" stroke-width="0.958904" stroke-linecap="round" stroke-linejoin="round"/>
<path d="M49.2917 26.3877H39.2147L39.2755 30.0515H49.3524L49.2917 26.3877Z" fill="#63239D"/>
<path d="M48.8412 26.8457H39.6803L39.7259 29.5936H48.8867L48.8412 26.8457Z" stroke="black" stroke-width="0.958904" stroke-linecap="round" stroke-linejoin="round"/>
<path d="M6.30359 43.791H51.1277" stroke="black" stroke-width="0.958904" stroke-linecap="round"/>
</svg>
