<svg width="54" height="39" viewBox="0 0 54 39" fill="none" xmlns="http://www.w3.org/2000/svg">
<path d="M52.3974 15.951H12.214V37.4444H52.3974V15.951Z" fill="#63239D" stroke="black" stroke-width="1.52426" stroke-linecap="round" stroke-linejoin="round"/>
<path d="M49.7668 31.1992V20.9964C48.9937 20.9964 48.2524 20.6893 47.7057 20.1427C47.1591 19.5961 46.8521 18.8547 46.8521 18.0817H17.7023C17.7023 18.8547 17.3952 19.5961 16.8486 20.1427C16.302 20.6893 15.5606 20.9964 14.7876 20.9964V31.1992C15.5606 31.1992 16.302 31.5063 16.8486 32.0529C17.3952 32.5995 17.7023 33.3409 17.7023 34.1139H46.8521C46.8521 33.3409 47.1591 32.5995 47.7057 32.0529C48.2524 31.5063 48.9937 31.1992 49.7668 31.1992Z" fill="#F7F7F7" stroke="black" stroke-width="1.52426" stroke-linecap="round" stroke-linejoin="round"/>
<path d="M32.2766 34.1139C35.5968 34.1139 38.2882 30.525 38.2882 26.0978C38.2882 21.6706 35.5968 18.0817 32.2766 18.0817C28.9565 18.0817 26.265 21.6706 26.265 26.0978C26.265 30.525 28.9565 34.1139 32.2766 34.1139Z" fill="#F053A0" stroke="black" stroke-width="1.52426"/>
<path d="M43.5195 27.1649C44.2937 27.1649 44.9213 26.5374 44.9213 25.7632C44.9213 24.989 44.2937 24.3615 43.5195 24.3615C42.7454 24.3615 42.1178 24.989 42.1178 25.7632C42.1178 26.5374 42.7454 27.1649 43.5195 27.1649Z" fill="#F053A0" stroke="black" stroke-width="1.52426"/>
<path d="M21.0917 27.1649C21.8658 27.1649 22.4934 26.5374 22.4934 25.7632C22.4934 24.989 21.8658 24.3615 21.0917 24.3615C20.3175 24.3615 19.6899 24.989 19.6899 25.7632C19.6899 26.5374 20.3175 27.1649 21.0917 27.1649Z" fill="#F053A0" stroke="black" stroke-width="1.52426"/>
<path d="M36.6408 31.6001C35.9189 30.9176 35.0294 30.4381 34.0625 30.2105C33.9799 30.1971 33.9051 30.154 33.8521 30.0893C33.7991 30.0245 33.7715 29.9427 33.7747 29.8591C33.7831 29.6722 33.7831 29.4703 33.7821 29.262C33.7821 28.7835 34.3578 28.2069 34.3896 27.5359C34.5665 27.1954 34.669 26.8211 34.6905 26.4379C34.6973 26.3624 34.6887 26.2862 34.6652 26.2141C34.6418 26.142 34.604 26.0754 34.554 26.0183C34.6007 25.7679 34.6409 25.5034 34.6905 25.2315C34.8319 24.7843 34.7908 24.2994 34.5759 23.8825C34.3611 23.4657 33.9901 23.1507 33.5438 23.0064C32.7213 22.8539 31.9338 22.5514 31.2207 22.114C31.0263 21.9271 31.1599 22.9849 30.9833 23.0644C30.5519 23.2098 30.1939 23.517 29.9847 23.9213C29.7755 24.3256 29.7315 24.7953 29.8619 25.2315C29.9105 25.5034 29.9554 25.7679 29.9984 26.0183C29.9484 26.0754 29.9106 26.142 29.8871 26.2141C29.8637 26.2862 29.8551 26.3624 29.8619 26.4379C29.8833 26.8211 29.9859 27.1954 30.1628 27.5359C30.1946 28.2078 30.7702 28.7508 30.7702 29.262C30.7702 29.4703 30.7702 29.6703 30.7777 29.8591C30.7809 29.9427 30.7533 30.0245 30.7003 30.0893C30.6473 30.154 30.5725 30.1971 30.4899 30.2105C29.5229 30.4381 28.6334 30.9176 27.9116 31.6001C28.3818 32.3405 29.0244 32.956 29.7844 33.3938C30.5445 33.8316 31.3993 34.0787 32.2757 34.1139C33.1521 34.0787 34.007 33.8316 34.767 33.3938C35.527 32.956 36.1697 32.3405 36.6398 31.6001H36.6408Z" fill="#F7F7F7" stroke="black" stroke-width="1.52426" stroke-linecap="round" stroke-linejoin="round"/>
<path d="M7.34058 3.66609C7.34058 3.66609 24.3315 1.04487 25.5473 1.69341C26.7631 2.34195 38.4985 7.00414 38.4985 7.00414C38.4985 7.00414 46.4371 11.5832 46.4735 12.4504C46.51 13.3176 47.1128 15.8043 44.4868 15.4585C41.8609 15.1128 36.9173 11.1944 36.9173 11.1944H25.5483C25.5483 11.1944 24.112 12.0925 25.1063 13.283C26.1006 14.4736 30.7655 17.4042 30.545 18.1256C30.3245 18.847 30.4936 22.4336 26.9201 21.1721C23.3465 19.9105 15.5697 15.4594 15.5697 15.4594L11.7663 12.4513L7.34058 13.283V3.66609Z" fill="#F7F7F7"/>
<path d="M7.34058 3.66609C7.34058 3.66609 24.3315 1.04487 25.5473 1.69341C26.7631 2.34195 38.4985 7.00414 38.4985 7.00414C38.4985 7.00414 46.4371 11.5832 46.4735 12.4504C46.51 13.3176 47.1128 15.8043 44.4868 15.4585C41.8609 15.1128 36.9173 11.1944 36.9173 11.1944H25.5483C25.5483 11.1944 24.112 12.0925 25.1063 13.283C26.1006 14.4736 30.7655 17.4042 30.545 18.1256C30.3245 18.847 30.4936 22.4336 26.9201 21.1721C23.3465 19.9105 15.5697 15.4594 15.5697 15.4594L11.7663 12.4513L7.34058 13.283V3.66609" stroke="black" stroke-width="1.52426" stroke-linecap="round" stroke-linejoin="round"/>
<path d="M7.54148 1H1.9345C1.41839 1 1 1.41839 1 1.9345V15.9519C1 16.4681 1.41839 16.8864 1.9345 16.8864H7.54148C8.05759 16.8864 8.47597 16.4681 8.47597 15.9519V1.9345C8.47597 1.41839 8.05759 1 7.54148 1Z" fill="#F053A0"/>
<path d="M7.54151 1.46722H1.93453C1.67648 1.46722 1.46729 1.67642 1.46729 1.93447V15.9519C1.46729 16.21 1.67648 16.4192 1.93453 16.4192H7.54151C7.79957 16.4192 8.00876 16.21 8.00876 15.9519V1.93447C8.00876 1.67642 7.79957 1.46722 7.54151 1.46722Z" stroke="black" stroke-width="1.52426" stroke-linecap="round" stroke-linejoin="round"/>
</svg>
