<svg width="18" height="22" viewBox="0 0 18 22" fill="none" xmlns="http://www.w3.org/2000/svg">
<path d="M0.248161 8.53462C-0.0942933 8.90083 -0.080793 9.48154 0.279212 9.83033C0.639217 10.1796 1.20892 10.1649 1.55183 9.79871L8.09987 2.76696L8.09987 21.0833C8.09987 21.5893 8.50307 22 8.99988 22C9.49669 22 9.89989 21.5893 9.89989 21.0833L9.89989 2.79629L16.4484 9.79871C16.7913 10.1654 17.361 10.1796 17.721 9.83033C17.9064 9.65021 18 9.40867 18 9.16667C18 8.93933 17.9177 8.712 17.7516 8.53462L10.2725 0.537166C9.93274 0.190666 9.48094 -4.14425e-07 8.99988 -3.93397e-07C8.51882 -3.7237e-07 8.06702 0.190666 7.71196 0.553207L0.248161 8.53462Z" fill="#172774"/>
</svg>
