<svg width="12" height="15" viewBox="0 0 12 15" fill="none" xmlns="http://www.w3.org/2000/svg">
<path fill-rule="evenodd" clip-rule="evenodd" d="M11.1199 6.02499C11.3491 4.49044 10.1808 3.6655 8.58313 3.11518L9.10138 1.03644L7.83568 0.721097L7.33113 2.74506C6.99885 2.66217 6.6572 2.58396 6.31771 2.50648L6.82586 0.469182L5.56124 0.153839L5.04264 2.23186C4.7673 2.16915 4.49701 2.10717 4.23464 2.04193L4.23608 2.03545L2.49106 1.59973L2.15446 2.9512C2.15446 2.9512 3.09328 3.16636 3.07346 3.17969C3.58593 3.30763 3.67892 3.64676 3.66306 3.91561L3.07274 6.28375C3.10805 6.29276 3.15382 6.30574 3.20428 6.32592L3.07093 6.29276L2.24311 9.61017C2.1804 9.76586 2.02147 9.9994 1.66324 9.91074C1.67586 9.92912 0.74352 9.68117 0.74352 9.68117L0.115356 11.1299L1.76235 11.5404C1.9483 11.587 2.13199 11.635 2.31366 11.6824L2.31372 11.6824C2.43132 11.713 2.54807 11.7435 2.66405 11.7732L2.1404 13.8761L3.4043 14.1915L3.92326 12.1113C4.26816 12.205 4.60332 12.2915 4.93128 12.3729L4.41448 14.4434L5.67981 14.7587L6.20346 12.6602C8.36113 13.0685 9.98398 12.9038 10.6662 10.9526C11.2165 9.38132 10.6392 8.47494 9.50394 7.88353C10.3307 7.69217 10.9534 7.14833 11.1196 6.02499H11.1199ZM8.22851 10.079C7.86929 11.5212 5.61145 10.9245 4.5793 10.6517C4.48687 10.6273 4.40427 10.6055 4.33375 10.5879L5.02858 7.80245C5.11478 7.82396 5.22009 7.84759 5.33939 7.87436L5.33941 7.87436C6.40721 8.11398 8.59551 8.60503 8.22887 10.079H8.22851ZM5.55403 6.5818C6.41526 6.81156 8.29251 7.31238 8.61953 6.00229C8.95387 4.66201 7.12844 4.25805 6.23692 4.06077C6.1367 4.03859 6.04828 4.01902 5.97606 4.00103L5.34609 6.52738C5.4057 6.54223 5.47566 6.56089 5.55403 6.5818Z" fill="#5D26B0" fill-opacity="0.87"/>
</svg>
