<svg width="21" height="21" viewBox="0 0 21 21" fill="none" xmlns="http://www.w3.org/2000/svg">
<path d="M10.7331 5.02153L14.3163 8.60535C14.4451 8.73428 14.6541 8.73428 14.783 8.60535L16.6716 6.71631C16.8005 6.58746 16.8005 6.37854 16.6716 6.24969L10.733 0.309738C10.6042 0.180812 10.3952 0.180812 10.2663 0.309738L4.32991 6.24753C4.20106 6.37638 4.20106 6.5853 4.32991 6.71415L6.21855 8.60319C6.3474 8.73211 6.5564 8.73211 6.68525 8.60319L10.2663 5.02153C10.3953 4.89261 10.6043 4.89261 10.7331 5.02153Z" fill="#5826B3"/>
<path d="M2.20008 8.37729L0.311356 10.2664C0.18251 10.3953 0.18251 10.6042 0.311356 10.733L2.19992 12.6221C2.32876 12.751 2.53777 12.751 2.66661 12.6221L4.55534 10.733C4.68418 10.6041 4.68418 10.3952 4.55534 10.2663L2.66669 8.37737C2.53793 8.24845 2.329 8.24845 2.20008 8.37729Z" fill="#5826B3"/>
<path d="M10.733 20.6903L16.6726 14.7494C16.8015 14.6204 16.8015 14.4114 16.6725 14.2826L14.7828 12.3946C14.6539 12.2658 14.445 12.2659 14.3162 12.3947L10.733 15.9785C10.6042 16.1074 10.3952 16.1074 10.2663 15.9785L6.6849 12.3965C6.55613 12.2677 6.34745 12.2676 6.21852 12.3962L4.32708 14.2827C4.19791 14.4116 4.19775 14.6207 4.32676 14.7497L10.2663 20.6903C10.3952 20.8192 10.6042 20.8192 10.733 20.6903Z" fill="#5826B3"/>
<path d="M18.3329 8.3784L16.4442 10.2675C16.3153 10.3964 16.3153 10.6053 16.4442 10.7341L18.3328 12.6232C18.4617 12.7521 18.6707 12.7521 18.7995 12.6232L20.6882 10.7341C20.8171 10.6052 20.8171 10.3963 20.6882 10.2674L18.7996 8.3784C18.6707 8.24956 18.4617 8.24956 18.3329 8.3784Z" fill="#5826B3"/>
<path d="M12.6577 10.2667L10.7332 8.34174C10.6044 8.21281 10.3954 8.21281 10.2665 8.34174L8.342 10.2667C8.21315 10.3955 8.21315 10.6044 8.342 10.7333L10.2665 12.6583C10.3954 12.7873 10.6044 12.7873 10.7332 12.6583L12.6577 10.7333C12.7866 10.6043 12.7866 10.3955 12.6577 10.2667Z" fill="#5826B3"/>
</svg>
