<svg width="29" height="30" viewBox="0 0 29 30" fill="none" xmlns="http://www.w3.org/2000/svg">
<path d="M17.8467 1.9827H22.0429V10.142H17.8467V1.9827Z" fill="#214083"/>
<path d="M3.96631 0H6.18097V10.1409H3.96631V0Z" fill="#214083"/>
<path d="M1.10734 10.1455H2.21467V7.93088H1.10734C0.813653 7.93088 0.531998 8.04754 0.324332 8.2552C0.116666 8.46287 0 8.74453 0 9.03821C0 9.33189 0.116666 9.61355 0.324332 9.82122C0.531998 10.0289 0.813653 10.1455 1.10734 10.1455Z" fill="#214083"/>
<path d="M23.7993 7.93201H26.014V10.1467H23.7993V7.93201Z" fill="#214083"/>
<path d="M1.42672 29.975H26.0143V25.7788H20.3948L17.9785 20.9368L20.3948 16.0949H26.0143V11.8986H1.10734C0.727049 11.8992 0.350507 11.8235 0 11.676V28.5495C0.000924454 28.9275 0.151573 29.2897 0.418967 29.5569C0.686362 29.8241 1.04872 29.9744 1.42672 29.975Z" fill="#214083"/>
<path d="M7.93213 10.1409H16.0915V0H7.93213V10.1409ZM12.02 2.21467H13.9945V3.9631H12.02V2.21467ZM13.9945 6.17777V7.9262H12.02V6.17777H13.9945Z" fill="#214083"/>
<path d="M21.4786 24.0269H28.1518V17.8491H21.4786L19.9365 20.9392L21.4786 24.0269ZM21.9367 20.0638H23.9113V21.8122H21.9367V20.0638Z" fill="#214083"/>
</svg>
