<svg width="28" height="26" viewBox="0 0 28 26" fill="none" xmlns="http://www.w3.org/2000/svg">
<path d="M26.5741 3.4286H6.85809V0.857606C6.85802 0.688027 6.80769 0.522274 6.71347 0.38128C6.61925 0.240285 6.48536 0.130374 6.32871 0.0654247C6.17206 0.00047566 5.99968 -0.016597 5.83333 0.0163619C5.66699 0.0493209 5.51414 0.130833 5.39409 0.250605L0.251094 5.39661C0.0906139 5.55745 0.000488281 5.77539 0.000488281 6.00261C0.000488281 6.22982 0.0906139 6.44776 0.251094 6.6086L5.39409 11.7516C5.51383 11.8717 5.66653 11.9537 5.83286 11.987C5.99918 12.0202 6.17164 12.0034 6.3284 11.9387C6.48517 11.8739 6.61918 11.764 6.71347 11.623C6.80777 11.482 6.8581 11.3162 6.85809 11.1466V8.57261H26.5741C26.8013 8.57234 27.0191 8.48197 27.1798 8.3213C27.3405 8.16064 27.4308 7.94281 27.4311 7.71561V4.28661C27.4314 4.17394 27.4094 4.06234 27.3664 3.95818C27.3235 3.85403 27.2604 3.75939 27.1807 3.67967C27.1011 3.59996 27.0065 3.53675 26.9024 3.49367C26.7983 3.45058 26.6868 3.42847 26.5741 3.4286Z" fill="#752D7E"/>
<path d="M27.18 19.1106L22.037 13.9656C21.917 13.8458 21.7641 13.7643 21.5978 13.7314C21.4314 13.6984 21.259 13.7155 21.1024 13.7804C20.9457 13.8454 20.8118 13.9553 20.7176 14.0963C20.6234 14.2373 20.5731 14.403 20.573 14.5726V17.1446H0.857C0.629791 17.1449 0.411963 17.2352 0.251302 17.3959C0.0906405 17.5566 0.000264659 17.7744 0 18.0016V21.4316C0.000264659 21.6588 0.0906405 21.8766 0.251302 22.0373C0.411963 22.198 0.629791 22.2883 0.857 22.2886H20.573V24.8606C20.5731 25.0302 20.6234 25.1959 20.7176 25.3369C20.8118 25.4779 20.9457 25.5878 21.1024 25.6528C21.259 25.7177 21.4314 25.7348 21.5978 25.7018C21.7641 25.6689 21.917 25.5874 22.037 25.4676L27.18 20.3246C27.2598 20.2449 27.323 20.1503 27.3662 20.0461C27.4094 19.942 27.4316 19.8303 27.4316 19.7176C27.4316 19.6048 27.4094 19.4932 27.3662 19.3891C27.323 19.2849 27.2598 19.1903 27.18 19.1106Z" fill="#752D7E"/>
</svg>
