<svg width="39" height="39" viewBox="0 0 39 39" fill="none" xmlns="http://www.w3.org/2000/svg">
<path d="M37.375 35.7498H35.75V22.7488C35.7474 20.5945 34.8906 18.5292 33.3674 17.006C31.8442 15.4827 29.7791 14.6258 27.625 14.6232H21.125V9.81119C21.8489 9.49523 22.465 8.97509 22.8979 8.31441C23.3308 7.65373 23.5618 6.88118 23.5625 6.09128C23.1235 4.01401 22.1347 2.0928 20.6992 0.528488C20.547 0.361961 20.3617 0.228969 20.1553 0.13798C19.9488 0.0469908 19.7256 0 19.5 0C19.2744 0 19.0512 0.0469908 18.8447 0.13798C18.6383 0.228969 18.453 0.361961 18.3008 0.528488C16.8653 2.0928 15.8765 4.01401 15.4375 6.09128C15.4382 6.88118 15.6692 7.65373 16.1021 8.31441C16.535 8.97509 17.1511 9.49523 17.875 9.81119V14.6232H11.375C9.22091 14.6258 7.15578 15.4827 5.63261 17.006C4.10943 18.5292 3.25258 20.5945 3.25 22.7488V35.7498H1.625C1.19402 35.7498 0.780698 35.921 0.475951 36.2257C0.171205 36.5305 0 36.9439 0 37.3749C0 37.8059 0.171205 38.2192 0.475951 38.524C0.780698 38.8288 1.19402 39 1.625 39H37.375C37.806 39 38.2193 38.8288 38.524 38.524C38.8288 38.2192 39 37.8059 39 37.3749C39 36.9439 38.8288 36.5305 38.524 36.2257C38.2193 35.921 37.806 35.7498 37.375 35.7498ZM11.375 17.8734H27.625C28.9179 17.8734 30.1579 18.3871 31.0721 19.3014C31.9864 20.2157 32.5 21.4558 32.5 22.7488V25.9665C30.979 25.804 30.0625 24.8289 30.0625 24.3739C30.0625 23.9429 29.8913 23.5295 29.5865 23.2248C29.2818 22.92 28.8685 22.7488 28.4375 22.7488C28.0065 22.7488 27.5932 22.92 27.2885 23.2248C26.9837 23.5295 26.8125 23.9429 26.8125 24.3739C26.8125 24.9313 25.7043 25.999 23.9688 25.999C22.1991 25.999 21.125 24.8712 21.125 24.3739C21.125 23.9429 20.9538 23.5295 20.649 23.2248C20.3443 22.92 19.931 22.7488 19.5 22.7488C19.069 22.7488 18.6557 22.92 18.351 23.2248C18.0462 23.5295 17.875 23.9429 17.875 24.3739C17.875 24.9313 16.7668 25.999 15.0312 25.999C13.2616 25.999 12.1875 24.8712 12.1875 24.3739C12.1875 23.9429 12.0163 23.5295 11.7115 23.2248C11.4068 22.92 10.9935 22.7488 10.5625 22.7488C10.1315 22.7488 9.7182 22.92 9.41345 23.2248C9.10871 23.5295 8.9375 23.9429 8.9375 24.3739C8.9375 24.8858 7.99662 25.817 6.5 25.9681V22.7488C6.5 21.4558 7.01361 20.2157 7.92785 19.3014C8.84209 18.3871 10.0821 17.8734 11.375 17.8734ZM6.5 29.2151C7.99288 29.1489 9.42163 28.5894 10.5625 27.6241C11.816 28.6691 13.395 29.2434 15.0269 29.2479C16.6587 29.2523 18.2409 28.6866 19.5 27.6485C20.7591 28.6866 22.3413 29.2523 23.9731 29.2479C25.605 29.2434 27.184 28.6691 28.4375 27.6241C29.5786 28.5888 31.0073 29.1477 32.5 29.2135V35.7498H6.5V29.2151Z" fill="#214083"/>
</svg>
