<svg width="31" height="31" viewBox="0 0 31 31" fill="none" xmlns="http://www.w3.org/2000/svg">
<path d="M15.5 0C24.0551 0 31 6.93661 31 15.4946C31 24.0527 24.0658 31 15.5 31C6.93421 31 0 24.0634 0 15.5054C0 6.94735 6.93421 0 15.5 0ZM3.39197 15.5054C3.39197 21.54 7.83587 26.6512 13.804 27.4995V21.8085H11.142C9.40305 21.8085 7.99688 20.4018 7.99688 18.6623V12.3592C7.99688 10.6197 9.40305 9.21302 11.142 9.21302H13.804V3.52199C7.82514 4.35954 3.39197 9.47073 3.39197 15.5054ZM17.1853 3.51126V9.20228H19.858C21.597 9.20228 23.0031 10.6197 23.0031 12.3485V18.6408C23.0031 20.3803 21.597 21.787 19.858 21.7977H17.1853V27.4887C23.8082 26.5546 28.4131 20.4233 27.4792 13.7981C26.7278 8.46138 22.5308 4.2629 17.1853 3.51126ZM19.1281 12.5954H11.8611C11.6035 12.5954 11.3889 12.7994 11.3781 13.0572V17.9214C11.3781 18.1791 11.5821 18.3938 11.8397 18.4046H19.1281C19.3857 18.4046 19.6004 18.2006 19.6112 17.9429V13.0786C19.6112 12.8209 19.3965 12.5954 19.1281 12.5954Z" fill="#B81C22"/>
</svg>
