<svg width="44" height="44" viewBox="0 0 44 44" fill="none" xmlns="http://www.w3.org/2000/svg">
<path d="M11.7366 0.727539C5.55627 0.727539 0.528809 5.755 0.528809 11.9353C0.528809 18.1156 5.55627 23.143 11.7366 23.143C17.9168 23.143 22.9443 18.1156 22.9443 11.9353C22.9443 5.755 17.9168 0.727539 11.7366 0.727539ZM11.7366 10.69C13.7966 10.69 15.4725 12.3658 15.4725 14.4259C15.4725 16.0473 14.4282 17.4166 12.9819 17.9324V19.4071H10.4912V17.9324C9.04487 17.4166 8.00064 16.0473 8.00064 14.4259H10.4912C10.4912 15.113 11.0506 15.6712 11.7366 15.6712C12.4225 15.6712 12.9819 15.113 12.9819 14.4259C12.9819 13.7388 12.4225 13.1806 11.7366 13.1806C9.67649 13.1806 8.00064 11.5047 8.00064 9.44467C8.00064 7.82329 9.04487 6.45395 10.4912 5.93814V4.46345H12.9819V5.93814C14.4282 6.45395 15.4725 7.82329 15.4725 9.44467H12.9819C12.9819 8.7576 12.4225 8.19937 11.7366 8.19937C11.0506 8.19937 10.4912 8.7576 10.4912 9.44467C10.4912 10.1317 11.0506 10.69 11.7366 10.69Z" fill="url(#paint0_linear_253_2405)"/>
<path d="M35.5635 25.7997V33.2715H33.0729V25.7997H25.6011V43.234H43.0353V25.7997H35.5635Z" fill="url(#paint1_linear_253_2405)"/>
<path d="M14.3103 38.2527C11.5637 38.2527 9.3291 36.0181 9.3291 33.2715H13.065L6.84612 24.9797L0.530518 33.2715H4.34788C4.34788 38.7648 8.81703 43.2339 14.3103 43.2339H18.0462V38.2527H14.3103Z" fill="url(#paint2_linear_253_2405)"/>
<path d="M29.254 5.70876C32.0006 5.70876 34.2352 7.94333 34.2352 10.69H30.4993L36.7182 18.9818L43.0338 10.69H39.2164C39.2164 5.19669 34.7473 0.727539 29.254 0.727539H25.5181V5.70876H29.254Z" fill="url(#paint3_linear_253_2405)"/>
<defs>
<linearGradient id="paint0_linear_253_2405" x1="11.7366" y1="0.727539" x2="11.7366" y2="23.143" gradientUnits="userSpaceOnUse">
<stop stop-color="#D7337D"/>
<stop offset="1" stop-color="#8C4498"/>
</linearGradient>
<linearGradient id="paint1_linear_253_2405" x1="34.3182" y1="25.7997" x2="34.3182" y2="43.234" gradientUnits="userSpaceOnUse">
<stop stop-color="#D7337D"/>
<stop offset="1" stop-color="#8C4498"/>
</linearGradient>
<linearGradient id="paint2_linear_253_2405" x1="9.28837" y1="24.9797" x2="9.28837" y2="43.2339" gradientUnits="userSpaceOnUse">
<stop stop-color="#D7337D"/>
<stop offset="1" stop-color="#8C4498"/>
</linearGradient>
<linearGradient id="paint3_linear_253_2405" x1="34.2759" y1="0.727539" x2="34.2759" y2="18.9818" gradientUnits="userSpaceOnUse">
<stop stop-color="#D7337D"/>
<stop offset="1" stop-color="#8C4498"/>
</linearGradient>
</defs>
</svg>
