<svg width="44" height="45" viewBox="0 0 44 45" fill="none" xmlns="http://www.w3.org/2000/svg">
<path d="M16.3692 24.4368H7.71059C7.54098 25.092 7.19915 25.6899 6.72055 26.1685C6.24195 26.6471 5.64401 26.989 4.98877 27.1586V36.8889C5.64401 37.0585 6.24195 37.4003 6.72055 37.8789C7.19915 38.3575 7.54098 38.9554 7.71059 39.6107H16.3692C15.1914 38.7273 14.2354 37.5818 13.5769 36.265C12.9185 34.9481 12.5757 33.496 12.5757 32.0237C12.5757 30.5514 12.9185 29.0993 13.5769 27.7825C14.2354 26.4656 15.1914 25.3201 16.3692 24.4368Z" fill="url(#paint0_linear_253_2394)"/>
<path d="M36.4079 24.4368H27.7493C28.9271 25.3201 29.8831 26.4656 30.5415 27.7825C31.2 29.0993 31.5427 30.5514 31.5427 32.0237C31.5427 33.496 31.2 34.9481 30.5415 36.265C29.8831 37.5818 28.9271 38.7273 27.7493 39.6107H36.4363C36.6035 38.9589 36.9411 38.3633 37.4144 37.885C37.8877 37.4067 38.4797 37.0629 39.1297 36.8889V27.1586C38.4745 26.989 37.8765 26.6471 37.3979 26.1685C36.9193 25.6899 36.5775 25.092 36.4079 24.4368Z" fill="url(#paint1_linear_253_2394)"/>
<path d="M22.0591 24.4368C20.5586 24.4368 19.0917 24.8817 17.844 25.7154C16.5964 26.5491 15.6239 27.734 15.0497 29.1203C14.4755 30.5067 14.3252 32.0321 14.618 33.5039C14.9107 34.9756 15.6333 36.3275 16.6943 37.3885C17.7554 38.4496 19.1073 39.1722 20.579 39.4649C22.0507 39.7576 23.5762 39.6074 24.9625 39.0332C26.3489 38.4589 27.5338 37.4865 28.3675 36.2388C29.2011 34.9911 29.6461 33.5243 29.6461 32.0237C29.6461 30.0115 28.8467 28.0818 27.4239 26.6589C26.0011 25.2361 24.0713 24.4368 22.0591 24.4368ZM22.0591 31.0754C22.7263 31.0805 23.3705 31.32 23.879 31.752C24.3876 32.184 24.7281 32.781 24.8411 33.4386C24.9541 34.0962 24.8323 34.7726 24.4972 35.3495C24.162 35.9265 23.6347 36.3673 23.0075 36.5949C23.0075 36.8464 22.9076 37.0876 22.7297 37.2655C22.5519 37.4433 22.3107 37.5432 22.0591 37.5432C21.8076 37.5432 21.5664 37.4433 21.3885 37.2655C21.2107 37.0876 21.1108 36.8464 21.1108 36.5949C19.0149 35.8172 18.5881 32.9721 20.1624 32.9721C20.4139 32.9721 20.6551 33.072 20.833 33.2499C21.0108 33.4277 21.1108 33.6689 21.1108 33.9205C21.1108 34.108 21.1664 34.2914 21.2706 34.4473C21.3748 34.6033 21.5229 34.7249 21.6962 34.7966C21.8695 34.8684 22.0602 34.8872 22.2441 34.8506C22.4281 34.814 22.5971 34.7237 22.7297 34.5911C22.8624 34.4584 22.9527 34.2894 22.9893 34.1055C23.0259 33.9215 23.0071 33.7308 22.9353 33.5575C22.8635 33.3842 22.742 33.2361 22.586 33.1319C22.4301 33.0277 22.2467 32.9721 22.0591 32.9721C21.3919 32.9669 20.7477 32.7274 20.2392 32.2954C19.7307 31.8634 19.3902 31.2665 19.2772 30.6089C19.1642 29.9513 19.2859 29.2749 19.6211 28.6979C19.9563 28.121 20.4835 27.6802 21.1108 27.4526C21.1108 27.2011 21.2107 26.9598 21.3885 26.782C21.5664 26.6041 21.8076 26.5042 22.0591 26.5042C22.3107 26.5042 22.5519 26.6041 22.7297 26.782C22.9076 26.9598 23.0075 27.2011 23.0075 27.4526C25.1034 28.2302 25.5302 31.0754 23.9559 31.0754C23.7043 31.0754 23.4631 30.9754 23.2853 30.7976C23.1074 30.6197 23.0075 30.3785 23.0075 30.127C23.0075 29.9394 22.9519 29.7561 22.8477 29.6001C22.7435 29.4441 22.5953 29.3226 22.4221 29.2508C22.2488 29.179 22.0581 29.1602 21.8741 29.1968C21.6901 29.2334 21.5212 29.3238 21.3885 29.4564C21.2559 29.589 21.1656 29.758 21.129 29.942C21.0924 30.1259 21.1112 30.3166 21.1829 30.4899C21.2547 30.6632 21.3763 30.8113 21.5322 30.9155C21.6882 31.0197 21.8716 31.0754 22.0591 31.0754Z" fill="url(#paint2_linear_253_2394)"/>
<path d="M0.246826 19.6949V44.3525H43.8718V19.6949H0.246826ZM41.0267 37.7139C41.0267 37.9654 40.9268 38.2067 40.7489 38.3845C40.5711 38.5624 40.3299 38.6623 40.0783 38.6623C39.5753 38.6623 39.0929 38.8621 38.7371 39.2178C38.3814 39.5735 38.1816 40.056 38.1816 40.559C38.1816 40.8105 38.0817 41.0518 37.9038 41.2296C37.726 41.4075 37.4848 41.5074 37.2332 41.5074H6.88541C6.63389 41.5074 6.39267 41.4075 6.21481 41.2296C6.03696 41.0518 5.93704 40.8105 5.93704 40.559C5.93704 40.056 5.73721 39.5735 5.3815 39.2178C5.02579 38.8621 4.54335 38.6623 4.0403 38.6623C3.78878 38.6623 3.54756 38.5624 3.36971 38.3845C3.19185 38.2067 3.09193 37.9654 3.09193 37.7139V26.3335C3.09193 26.0819 3.19185 25.8407 3.36971 25.6629C3.54756 25.485 3.78878 25.3851 4.0403 25.3851C4.54335 25.3851 5.02579 25.1853 5.3815 24.8296C5.73721 24.4739 5.93704 23.9914 5.93704 23.4884C5.93704 23.2368 6.03696 22.9956 6.21481 22.8178C6.39267 22.6399 6.63389 22.54 6.88541 22.54H37.2332C37.4848 22.54 37.726 22.6399 37.9038 22.8178C38.0817 22.9956 38.1816 23.2368 38.1816 23.4884C38.1816 23.9914 38.3814 24.4739 38.7371 24.8296C39.0929 25.1853 39.5753 25.3851 40.0783 25.3851C40.3299 25.3851 40.5711 25.485 40.7489 25.6629C40.9268 25.8407 41.0267 26.0819 41.0267 26.3335V37.7139Z" fill="url(#paint3_linear_253_2394)"/>
<path d="M9.73022 14.0047H15.4204V17.7982H9.73022V14.0047Z" fill="url(#paint4_linear_253_2394)"/>
<path d="M19.2146 10.2112H24.9048V17.7981H19.2146V10.2112Z" fill="url(#paint5_linear_253_2394)"/>
<path d="M28.698 17.7982H34.3882V6.41776H36.285L31.5431 0.727539L26.8013 6.41776H28.698V17.7982Z" fill="url(#paint6_linear_253_2394)"/>
<defs>
<linearGradient id="paint0_linear_253_2394" x1="10.679" y1="24.4368" x2="10.679" y2="39.6107" gradientUnits="userSpaceOnUse">
<stop stop-color="#D7337D"/>
<stop offset="1" stop-color="#8C4498"/>
</linearGradient>
<linearGradient id="paint1_linear_253_2394" x1="33.4395" y1="24.4368" x2="33.4395" y2="39.6107" gradientUnits="userSpaceOnUse">
<stop stop-color="#D7337D"/>
<stop offset="1" stop-color="#8C4498"/>
</linearGradient>
<linearGradient id="paint2_linear_253_2394" x1="22.0591" y1="24.4368" x2="22.0591" y2="39.6107" gradientUnits="userSpaceOnUse">
<stop stop-color="#D7337D"/>
<stop offset="1" stop-color="#8C4498"/>
</linearGradient>
<linearGradient id="paint3_linear_253_2394" x1="22.0593" y1="19.6949" x2="22.0593" y2="44.3525" gradientUnits="userSpaceOnUse">
<stop stop-color="#D7337D"/>
<stop offset="1" stop-color="#8C4498"/>
</linearGradient>
<linearGradient id="paint4_linear_253_2394" x1="12.5753" y1="14.0047" x2="12.5753" y2="17.7982" gradientUnits="userSpaceOnUse">
<stop stop-color="#D7337D"/>
<stop offset="1" stop-color="#8C4498"/>
</linearGradient>
<linearGradient id="paint5_linear_253_2394" x1="22.0597" y1="10.2112" x2="22.0597" y2="17.7981" gradientUnits="userSpaceOnUse">
<stop stop-color="#D7337D"/>
<stop offset="1" stop-color="#8C4498"/>
</linearGradient>
<linearGradient id="paint6_linear_253_2394" x1="31.5431" y1="0.727539" x2="31.5431" y2="17.7982" gradientUnits="userSpaceOnUse">
<stop stop-color="#D7337D"/>
<stop offset="1" stop-color="#8C4498"/>
</linearGradient>
</defs>
</svg>
