<svg width="178" height="64" viewBox="0 0 178 64" fill="none" xmlns="http://www.w3.org/2000/svg">
<g opacity="0.24">
<rect x="0.722168" y="59.9295" width="4" height="3" fill="#C645A9"/>
</g>
<g opacity="0.64">
<rect x="0.722168" y="55.9295" width="4" height="2" fill="#C645A9"/>
</g>
<g opacity="0.24">
<rect x="5.80273" y="60.8107" width="4" height="2" fill="#C645A9"/>
</g>
<g opacity="0.64">
<rect x="5.80273" y="56.8107" width="4" height="2" fill="#C645A9"/>
</g>
<g opacity="0.24">
<rect x="10.8831" y="58.1671" width="4" height="5" fill="#C645A9"/>
</g>
<g opacity="0.64">
<rect x="10.8831" y="54.1671" width="4" height="2" fill="#C645A9"/>
</g>
<g opacity="0.24">
<rect x="15.9629" y="53.7611" width="4" height="9" fill="#C645A9"/>
</g>
<g opacity="0.64">
<rect x="15.9629" y="49.7611" width="4" height="2" fill="#C645A9"/>
</g>
<g opacity="0.24">
<rect x="20.0271" y="52.8799" width="5" height="10" fill="#C645A9"/>
</g>
<g opacity="0.64">
<rect x="20.0271" y="48.8799" width="5" height="2" fill="#C645A9"/>
</g>
<g opacity="0.24">
<rect x="25.1067" y="59.9295" width="5" height="3" fill="#C645A9"/>
</g>
<g opacity="0.64">
<rect x="25.1067" y="55.9295" width="5" height="2" fill="#C645A9"/>
</g>
<g opacity="0.24">
<rect x="30.1875" y="49.3549" width="4" height="14" fill="#C645A9"/>
</g>
<g opacity="0.64">
<rect x="30.1875" y="45.3549" width="4" height="2" fill="#C645A9"/>
</g>
<g opacity="0.24">
<rect x="35.2678" y="38.7805" width="4" height="24" fill="#C645A9"/>
</g>
<g opacity="0.64">
<rect x="35.2678" y="34.7805" width="4" height="2" fill="#C645A9"/>
</g>
<g opacity="0.24">
<rect x="40.3479" y="44.9489" width="4" height="18" fill="#C645A9"/>
</g>
<g opacity="0.64">
<rect x="40.3479" y="40.9489" width="4" height="2" fill="#C645A9"/>
</g>
<g opacity="0.24">
<rect x="45.4285" y="34.3746" width="4" height="29" fill="#C645A9"/>
</g>
<g opacity="0.64">
<rect x="45.4285" y="30.3746" width="4" height="2" fill="#C645A9"/>
</g>
<g opacity="0.24">
<rect x="50.5088" y="51.1175" width="4" height="12" fill="#C645A9"/>
</g>
<g opacity="0.64">
<rect x="50.5088" y="47.1175" width="4" height="2" fill="#C645A9"/>
</g>
<g opacity="0.24">
<rect x="54.5723" y="49.3549" width="5" height="14" fill="#C645A9"/>
</g>
<g opacity="0.64">
<rect x="54.5723" y="45.3549" width="5" height="2" fill="#C645A9"/>
</g>
<g opacity="0.24">
<rect x="59.6536" y="46.7113" width="5" height="16" fill="#C645A9"/>
</g>
<g opacity="0.64">
<rect x="59.6536" y="42.7113" width="5" height="2" fill="#C645A9"/>
</g>
<g opacity="0.24">
<rect x="64.7329" y="38.7805" width="4" height="24" fill="#C645A9"/>
</g>
<g opacity="0.64">
<rect x="64.7329" y="34.7805" width="4" height="2" fill="#C645A9"/>
</g>
<g opacity="0.24">
<rect x="69.813" y="47.5925" width="4" height="15" fill="#C645A9"/>
</g>
<g opacity="0.64">
<rect x="69.813" y="43.5925" width="4" height="2" fill="#C645A9"/>
</g>
<g opacity="0.24">
<rect x="74.8936" y="37.8994" width="4" height="25" fill="#C645A9"/>
</g>
<g opacity="0.64">
<rect x="74.8936" y="33.8994" width="4" height="2" fill="#C645A9"/>
</g>
<g opacity="0.24">
<rect x="79.9736" y="42.3054" width="4" height="21" fill="#C645A9"/>
</g>
<g opacity="0.64">
<rect x="79.9736" y="38.3054" width="4" height="2" fill="#C645A9"/>
</g>
<g opacity="0.24">
<rect x="84.0374" y="36.137" width="5" height="27" fill="#C645A9"/>
</g>
<g opacity="0.64">
<rect x="84.0374" y="32.137" width="5" height="2" fill="#C645A9"/>
</g>
<g opacity="0.24">
<rect x="89.1184" y="33.4933" width="5" height="29" fill="#C645A9"/>
</g>
<g opacity="0.64">
<rect x="89.1184" y="29.4933" width="5" height="2" fill="#C645A9"/>
</g>
<g opacity="0.24">
<rect x="94.1985" y="26.4438" width="4" height="37" fill="#C645A9"/>
</g>
<g opacity="0.64">
<rect x="94.1985" y="22.4438" width="4" height="2" fill="#C645A9"/>
</g>
<g opacity="0.24">
<rect x="99.2786" y="29.0873" width="4" height="34" fill="#C645A9"/>
</g>
<g opacity="0.64">
<rect x="99.2786" y="25.0873" width="4" height="2" fill="#C645A9"/>
</g>
<g opacity="0.24">
<rect x="104.359" y="29.9686" width="4" height="33" fill="#C645A9"/>
</g>
<g opacity="0.64">
<rect x="104.359" y="25.9686" width="4" height="2" fill="#C645A9"/>
</g>
<g opacity="0.24">
<rect x="109.439" y="27.325" width="4" height="36" fill="#C645A9"/>
</g>
<g opacity="0.64">
<rect x="109.439" y="23.325" width="4" height="2" fill="#C645A9"/>
</g>
<g opacity="0.24">
<rect x="113.503" y="34.3746" width="5" height="29" fill="#C645A9"/>
</g>
<g opacity="0.64">
<rect x="113.503" y="30.3746" width="5" height="2" fill="#C645A9"/>
</g>
<g opacity="0.24">
<rect x="118.583" y="18.5128" width="5" height="44" fill="#C645A9"/>
</g>
<g opacity="0.64">
<rect x="118.583" y="14.5128" width="5" height="2" fill="#C645A9"/>
</g>
<g opacity="0.24">
<rect x="123.664" y="29.9686" width="4" height="33" fill="#C645A9"/>
</g>
<g opacity="0.64">
<rect x="123.664" y="25.9686" width="4" height="2" fill="#C645A9"/>
</g>
<g opacity="0.24">
<rect x="128.744" y="23.8002" width="4" height="39" fill="#C645A9"/>
</g>
<g opacity="0.64">
<rect x="128.744" y="19.8002" width="4" height="2" fill="#C645A9"/>
</g>
<g opacity="0.24">
<rect x="133.824" y="16.7504" width="4" height="46" fill="#C645A9"/>
</g>
<g opacity="0.64">
<rect x="133.824" y="12.7504" width="4" height="2" fill="#C645A9"/>
</g>
<g opacity="0.24">
<rect x="138.904" y="21.1566" width="4" height="42" fill="#C645A9"/>
</g>
<g opacity="0.64">
<rect x="138.904" y="17.1566" width="4" height="2" fill="#C645A9"/>
</g>
<g opacity="0.24">
<rect x="143.984" y="24.6814" width="4" height="38" fill="#C645A9"/>
</g>
<g opacity="0.64">
<rect x="143.984" y="20.6814" width="4" height="2" fill="#C645A9"/>
</g>
<g opacity="0.24">
<rect x="148.049" y="11.4632" width="5" height="52" fill="#C645A9"/>
</g>
<g opacity="0.64">
<rect x="148.049" y="7.4632" width="5" height="2" fill="#C645A9"/>
</g>
<g opacity="0.24">
<rect x="153.129" y="15.8692" width="5" height="47" fill="#C645A9"/>
</g>
<g opacity="0.64">
<rect x="153.129" y="11.8692" width="5" height="2" fill="#C645A9"/>
</g>
<g opacity="0.24">
<rect x="158.208" y="21.1566" width="4" height="42" fill="#C645A9"/>
</g>
<g opacity="0.64">
<rect x="158.208" y="17.1566" width="4" height="2" fill="#C645A9"/>
</g>
<g opacity="0.24">
<rect x="163.289" y="18.5128" width="4" height="44" fill="#C645A9"/>
</g>
<g opacity="0.64">
<rect x="163.289" y="14.5128" width="4" height="2" fill="#C645A9"/>
</g>
<g opacity="0.24">
<rect x="168.37" y="11.4632" width="4" height="52" fill="#C645A9"/>
</g>
<g opacity="0.64">
<rect x="168.37" y="7.4632" width="4" height="2" fill="#C645A9"/>
</g>
<g opacity="0.24">
<rect x="173.449" y="4.41364" width="4" height="59" fill="#C645A9"/>
</g>
<g opacity="0.64">
<rect x="173.449" y="0.413635" width="4" height="2" fill="#C645A9"/>
</g>
</svg>
