<svg width="50" height="50" viewBox="0 0 50 50" fill="none" xmlns="http://www.w3.org/2000/svg">
<path d="M24.6307 0C19.7592 0 14.9971 1.44456 10.9466 4.15101C6.89611 6.85746 3.73914 10.7042 1.87491 15.2049C0.0106724 19.7056 -0.477097 24.658 0.473282 29.4358C1.42366 34.2137 3.7695 38.6025 7.21416 42.0471C10.6588 45.4918 15.0476 47.8376 19.8255 48.788C24.6033 49.7384 29.5557 49.2506 34.0564 47.3864C38.5571 45.5222 42.4038 42.3652 45.1103 38.3147C47.8167 34.2642 49.2613 29.5021 49.2613 24.6306C49.2538 18.1005 46.6564 11.84 42.0388 7.22246C37.4213 2.60494 31.1608 0.00752177 24.6307 0V0Z" fill="url(#paint0_linear_253_4784)"/>
<path d="M24.6306 7.57867C21.258 7.57867 17.9612 8.57876 15.157 10.4525C12.3528 12.3261 10.1673 14.9893 8.87663 18.1051C7.586 21.221 7.24832 24.6496 7.90627 27.9573C8.56422 31.2651 10.1883 34.3035 12.573 36.6882C14.9578 39.073 17.9962 40.697 21.3039 41.355C24.6117 42.013 28.0403 41.6753 31.1561 40.3846C34.272 39.094 36.9351 36.9084 38.8088 34.1042C40.6825 31.3 41.6826 28.0032 41.6826 24.6307C41.6776 20.1097 39.8794 15.7754 36.6826 12.5786C33.4859 9.38184 29.1515 7.58369 24.6306 7.57867V7.57867Z" fill="#F7F7F7"/>
<path d="M32.1496 23.4939C32.6276 22.4968 32.9151 21.4192 32.9974 20.3165C33.0128 19.4776 32.859 18.6443 32.545 17.8662C32.2311 17.0881 31.7635 16.3813 31.1702 15.788C30.577 15.1948 29.8702 14.7272 29.0921 14.4132C28.314 14.0993 27.4806 13.9454 26.6418 13.9609C26.659 13.6778 26.6158 13.3942 26.5151 13.1291C26.4145 12.8639 26.2586 12.6232 26.0579 12.4228C25.8572 12.2224 25.6161 12.067 25.3508 11.9668C25.0855 11.8666 24.8019 11.824 24.5188 11.8417C24.2362 11.8247 23.9532 11.8678 23.6885 11.9683C23.4238 12.0687 23.1834 12.2242 22.9832 12.4244C22.7831 12.6245 22.6276 12.8649 22.5272 13.1296C22.4267 13.3943 22.3836 13.6773 22.4006 13.9599H18.1631C17.6012 13.9599 17.0623 14.1831 16.665 14.5805C16.2677 14.9778 16.0444 15.5167 16.0444 16.0786C16.0444 16.6405 16.2677 17.1794 16.665 17.5768C17.0623 17.9741 17.6012 18.1973 18.1631 18.1973V30.9086C17.6012 30.9086 17.0623 31.1319 16.665 31.5292C16.2677 31.9265 16.0444 32.4654 16.0444 33.0273C16.0444 33.5893 16.2677 34.1282 16.665 34.5255C17.0623 34.9228 17.6012 35.146 18.1631 35.146H22.4006C22.3836 35.4286 22.4267 35.7116 22.5272 35.9763C22.6276 36.241 22.7831 36.4814 22.9832 36.6816C23.1834 36.8818 23.4238 37.0372 23.6885 37.1377C23.9532 37.2381 24.2362 37.2813 24.5188 37.2643C24.8015 37.2814 25.0846 37.2384 25.3494 37.138C25.6142 37.0376 25.8547 36.8822 26.055 36.682C26.2553 36.4818 26.4108 36.2413 26.5113 35.9766C26.6118 35.7118 26.655 35.4287 26.638 35.146H28.7562C30.1301 35.158 31.4702 34.7208 32.5728 33.901C33.6753 33.0812 34.4798 31.9237 34.864 30.6046C35.2481 29.2854 35.1909 27.8769 34.7009 26.5934C34.2109 25.3098 33.315 24.2214 32.1496 23.4939ZM26.6418 18.1973C27.2037 18.1973 27.7426 18.4205 28.1399 18.8179C28.5373 19.2152 28.7605 19.7541 28.7605 20.316C28.7605 20.8779 28.5373 21.4169 28.1399 21.8142C27.7426 22.2115 27.2037 22.4347 26.6418 22.4347H22.4006V18.1973H26.6418ZM28.76 30.9086H22.4006V26.6712H28.7562C29.3181 26.6712 29.857 26.8944 30.2544 27.2918C30.6517 27.6891 30.8749 28.228 30.8749 28.7899C30.8749 29.3518 30.6517 29.8907 30.2544 30.2881C29.857 30.6854 29.3181 30.9086 28.7562 30.9086H28.76Z" fill="url(#paint1_linear_253_4784)"/>
<defs>
<linearGradient id="paint0_linear_253_4784" x1="24.6306" y1="0" x2="24.6306" y2="49.2613" gradientUnits="userSpaceOnUse">
<stop stop-color="#D3347F"/>
<stop offset="1" stop-color="#924296"/>
</linearGradient>
<linearGradient id="paint1_linear_253_4784" x1="25.5799" y1="11.8378" x2="25.5799" y2="37.2679" gradientUnits="userSpaceOnUse">
<stop stop-color="#D3347F"/>
<stop offset="1" stop-color="#924296"/>
</linearGradient>
</defs>
</svg>
