<svg width="52" height="43" viewBox="0 0 52 43" fill="none" xmlns="http://www.w3.org/2000/svg">
<path d="M31.4312 17.1441C34.9727 17.1441 37.7962 14.2734 37.7375 10.7323C37.6787 7.19125 34.7601 4.32062 31.2185 4.32062C27.6769 4.32062 24.8535 7.19125 24.9122 10.7323C24.9709 14.2734 27.8896 17.1441 31.4312 17.1441Z" fill="url(#paint0_linear_253_4788)"/>
<path d="M34.1453 8.68057L34.1549 9.25946C34.1564 9.28383 34.1529 9.30816 34.1445 9.33092C34.1361 9.35368 34.123 9.37436 34.106 9.39161C34.089 9.40886 34.0686 9.42232 34.046 9.43111C34.0234 9.4399 33.9991 9.44383 33.9747 9.44265H33.021C32.9574 9.96055 32.7043 10.4335 32.3102 10.7708C31.8681 11.1307 31.3261 11.3483 30.754 11.3955C31.3973 12.0672 32.2826 13.0812 33.4098 14.4374C33.4356 14.4621 33.4523 14.4948 33.457 14.53C33.4618 14.5651 33.4543 14.6007 33.4359 14.6307C33.4234 14.663 33.4008 14.6904 33.3715 14.7088C33.3422 14.7272 33.3076 14.7358 33.2728 14.7332H32.1716C32.1442 14.7344 32.1169 14.7289 32.0919 14.717C32.067 14.7052 32.0452 14.6875 32.0285 14.6655C30.8451 13.2769 29.8848 12.1966 29.1477 11.4248C29.1308 11.4086 29.1174 11.3893 29.1082 11.3678C29.099 11.3464 29.0943 11.3234 29.0943 11.3002L29.0824 10.5794C29.0816 10.5308 29.1001 10.4842 29.1339 10.4498C29.1677 10.4155 29.214 10.3962 29.2626 10.3962H29.8983C30.3146 10.4141 30.7273 10.3304 31.1008 10.1525C31.2416 10.0825 31.3654 9.983 31.4637 9.86056C31.562 9.73812 31.6326 9.59562 31.6707 9.44265H29.244C29.2197 9.44383 29.1953 9.4399 29.1723 9.43111C29.1494 9.42232 29.1285 9.40886 29.111 9.39161C29.0935 9.37436 29.0797 9.35368 29.0705 9.33092C29.0613 9.30816 29.057 9.28383 29.0578 9.25946L29.0482 8.68057C29.0466 8.6562 29.0501 8.63185 29.0585 8.60909C29.0669 8.58634 29.08 8.56566 29.097 8.54841C29.114 8.53116 29.1344 8.5177 29.1571 8.50891C29.1797 8.50012 29.204 8.4962 29.2283 8.49738H31.5726C31.3499 8.06993 30.8392 7.8562 30.0403 7.8562H29.2159C29.1673 7.8562 29.1204 7.8369 29.0854 7.80254C29.0505 7.76819 29.0304 7.72159 29.0296 7.67301L29.0172 6.92283C29.0156 6.89847 29.0191 6.87412 29.0275 6.85136C29.0359 6.8286 29.0491 6.80794 29.066 6.79069C29.083 6.77344 29.1034 6.75998 29.1261 6.75119C29.1487 6.7424 29.173 6.73847 29.1974 6.73964H33.9198C33.9441 6.73847 33.9686 6.7424 33.9915 6.75119C34.0144 6.75998 34.0353 6.77344 34.0528 6.79069C34.0703 6.80794 34.0841 6.8286 34.0933 6.85136C34.1025 6.87412 34.1068 6.89847 34.106 6.92283L34.1156 7.50173C34.1172 7.52609 34.1137 7.55044 34.1053 7.5732C34.0969 7.59596 34.0838 7.61662 34.0668 7.63387C34.0498 7.65112 34.0294 7.66458 34.0068 7.67337C33.9841 7.68216 33.9598 7.68609 33.9355 7.68491H32.6135C32.801 7.9254 32.931 8.20501 32.9935 8.50195H33.9646C33.9889 8.50077 34.0133 8.50471 34.0363 8.5135C34.0592 8.52228 34.0801 8.53574 34.0976 8.55299C34.1151 8.57024 34.1289 8.59092 34.1381 8.61368C34.1473 8.63644 34.1516 8.66077 34.1508 8.68514L34.1453 8.68057Z" fill="#F5FAFF"/>
<path d="M12.3301 25.3877C15.8717 25.3877 18.6951 22.5171 18.6364 18.976C18.5777 15.4349 15.659 12.5643 12.1174 12.5643C8.57586 12.5643 5.75244 15.4349 5.81115 18.976C5.86987 22.5171 8.7885 25.3877 12.3301 25.3877Z" fill="url(#paint1_linear_253_4788)"/>
<path d="M15.0444 16.9242L15.054 17.5031C15.0556 17.5275 15.0521 17.5518 15.0437 17.5746C15.0353 17.5973 15.0221 17.618 15.0052 17.6353C14.9882 17.6525 14.9678 17.666 14.9452 17.6748C14.9225 17.6835 14.8983 17.6875 14.8739 17.6863H13.9202C13.8566 18.2042 13.6034 18.6772 13.2094 19.0144C12.7673 19.3744 12.2253 19.592 11.6532 19.6391C12.2964 20.3108 13.1817 21.3248 14.309 22.681C14.3348 22.7058 14.3514 22.7385 14.3562 22.7736C14.3609 22.8088 14.3535 22.8443 14.3351 22.8743C14.3226 22.9067 14.3 22.934 14.2707 22.9525C14.2413 22.9709 14.2068 22.9794 14.1719 22.9769H13.0708C13.0434 22.9781 13.016 22.9725 12.9911 22.9607C12.9661 22.9489 12.9443 22.9312 12.9277 22.9091C11.7442 21.5205 10.784 20.4403 10.0469 19.6684C10.03 19.6523 10.0166 19.6329 10.0074 19.6115C9.99819 19.5901 9.99347 19.567 9.9935 19.5439L9.98155 18.823C9.98074 18.7744 9.99929 18.7278 10.0331 18.6935C10.0669 18.6591 10.1131 18.6398 10.1617 18.6398H10.7975C11.2138 18.6577 11.6265 18.5741 11.9999 18.3962C12.1408 18.3262 12.2645 18.2267 12.3628 18.1042C12.4611 17.9818 12.5317 17.8393 12.5699 17.6863H10.1432C10.1188 17.6875 10.0944 17.6835 10.0715 17.6748C10.0486 17.666 10.0277 17.6525 10.0102 17.6353C9.99262 17.618 9.97882 17.5973 9.96965 17.5746C9.96049 17.5518 9.95615 17.5275 9.95692 17.5031L9.94732 16.9242C9.94574 16.8999 9.94927 16.8755 9.95768 16.8527C9.9661 16.83 9.97921 16.8093 9.99618 16.7921C10.0131 16.7748 10.0336 16.7614 10.0562 16.7526C10.0788 16.7438 10.1031 16.7399 10.1275 16.741H12.4718C12.2491 16.3136 11.7383 16.0998 10.9395 16.0998H10.115C10.0664 16.0998 10.0195 16.0805 9.9846 16.0462C9.94967 16.0118 9.92958 15.9652 9.92877 15.9167L9.91633 15.1665C9.91475 15.1421 9.91828 15.1178 9.92669 15.095C9.93511 15.0723 9.94822 15.0516 9.96519 15.0343C9.98216 15.0171 10.0026 15.0036 10.0252 14.9948C10.0478 14.9861 10.0721 14.9821 10.0965 14.9833H14.819C14.8433 14.9821 14.8677 14.9861 14.8906 14.9948C14.9135 15.0036 14.9344 15.0171 14.952 15.0343C14.9695 15.0516 14.9833 15.0723 14.9925 15.095C15.0017 15.1178 15.006 15.1421 15.0052 15.1665L15.0148 15.7454C15.0164 15.7697 15.0129 15.7941 15.0045 15.8169C14.996 15.8396 14.9829 15.8603 14.966 15.8775C14.949 15.8948 14.9285 15.9082 14.9059 15.917C14.8833 15.9258 14.859 15.9297 14.8346 15.9286H13.5127C13.7002 16.169 13.8302 16.4487 13.8927 16.7456H14.8637C14.8881 16.7444 14.9125 16.7484 14.9354 16.7571C14.9583 16.7659 14.9792 16.7794 14.9968 16.7966C15.0143 16.8139 15.0281 16.8346 15.0373 16.8573C15.0464 16.8801 15.0508 16.9044 15.05 16.9288L15.0444 16.9242Z" fill="#F5FAFF"/>
<path d="M23.836 39.1271H13.759L13.8198 42.791H23.8967L23.836 39.1271Z" fill="url(#paint2_linear_253_4788)"/>
<path d="M23.7903 36.3793H13.7134L13.7741 40.0431H23.8511L23.7903 36.3793Z" fill="url(#paint3_linear_253_4788)"/>
<path d="M36.6612 39.1271H26.5842L26.645 42.791H36.7219L36.6612 39.1271Z" fill="url(#paint4_linear_253_4788)"/>
<path d="M36.5701 33.6313H26.4932L26.5539 37.2952H36.6309L36.5701 33.6313Z" fill="url(#paint5_linear_253_4788)"/>
<path d="M36.6155 36.3792H26.5386L26.5993 40.0431H36.6763L36.6155 36.3792Z" fill="url(#paint6_linear_253_4788)"/>
<path d="M36.5245 30.8835H26.4475L26.5083 34.5473H36.5852L36.5245 30.8835Z" fill="url(#paint7_linear_253_4788)"/>
<path d="M49.4861 39.1271H39.4092L39.4699 42.791H49.5469L49.4861 39.1271Z" fill="url(#paint8_linear_253_4788)"/>
<path d="M49.3951 33.6313H39.3181L39.3789 37.2952H49.4558L49.3951 33.6313Z" fill="url(#paint9_linear_253_4788)"/>
<path d="M49.304 28.1356H39.2271L39.2878 31.7995H49.3648L49.304 28.1356Z" fill="url(#paint10_linear_253_4788)"/>
<path d="M49.4405 36.3792H39.3635L39.4243 40.0431H49.5012L49.4405 36.3792Z" fill="url(#paint11_linear_253_4788)"/>
<path d="M49.3494 30.8835H39.2725L39.3332 34.5473H49.4102L49.3494 30.8835Z" fill="url(#paint12_linear_253_4788)"/>
<path d="M49.2584 25.3877H39.1814L39.2422 29.0515H49.3191L49.2584 25.3877Z" fill="url(#paint13_linear_253_4788)"/>
<defs>
<linearGradient id="paint0_linear_253_4788" x1="31.2185" y1="4.32062" x2="31.2185" y2="17.1441" gradientUnits="userSpaceOnUse">
<stop stop-color="#DF327B"/>
<stop offset="1" stop-color="#88449A"/>
</linearGradient>
<linearGradient id="paint1_linear_253_4788" x1="12.1174" y1="12.5643" x2="12.1174" y2="25.3877" gradientUnits="userSpaceOnUse">
<stop stop-color="#DF327B"/>
<stop offset="1" stop-color="#88449A"/>
</linearGradient>
<linearGradient id="paint2_linear_253_4788" x1="18.7975" y1="39.1271" x2="18.7975" y2="42.791" gradientUnits="userSpaceOnUse">
<stop stop-color="#DF327B"/>
<stop offset="1" stop-color="#88449A"/>
</linearGradient>
<linearGradient id="paint3_linear_253_4788" x1="18.7519" y1="36.3793" x2="18.7519" y2="40.0431" gradientUnits="userSpaceOnUse">
<stop stop-color="#DF327B"/>
<stop offset="1" stop-color="#88449A"/>
</linearGradient>
<linearGradient id="paint4_linear_253_4788" x1="31.6227" y1="39.1271" x2="31.6227" y2="42.791" gradientUnits="userSpaceOnUse">
<stop stop-color="#DF327B"/>
<stop offset="1" stop-color="#88449A"/>
</linearGradient>
<linearGradient id="paint5_linear_253_4788" x1="31.5316" y1="33.6313" x2="31.5316" y2="37.2952" gradientUnits="userSpaceOnUse">
<stop stop-color="#DF327B"/>
<stop offset="1" stop-color="#88449A"/>
</linearGradient>
<linearGradient id="paint6_linear_253_4788" x1="31.5771" y1="36.3792" x2="31.5771" y2="40.0431" gradientUnits="userSpaceOnUse">
<stop stop-color="#DF327B"/>
<stop offset="1" stop-color="#88449A"/>
</linearGradient>
<linearGradient id="paint7_linear_253_4788" x1="31.486" y1="30.8835" x2="31.486" y2="34.5473" gradientUnits="userSpaceOnUse">
<stop stop-color="#DF327B"/>
<stop offset="1" stop-color="#88449A"/>
</linearGradient>
<linearGradient id="paint8_linear_253_4788" x1="44.4477" y1="39.1271" x2="44.4477" y2="42.791" gradientUnits="userSpaceOnUse">
<stop stop-color="#DF327B"/>
<stop offset="1" stop-color="#88449A"/>
</linearGradient>
<linearGradient id="paint9_linear_253_4788" x1="44.3566" y1="33.6313" x2="44.3566" y2="37.2952" gradientUnits="userSpaceOnUse">
<stop stop-color="#DF327B"/>
<stop offset="1" stop-color="#88449A"/>
</linearGradient>
<linearGradient id="paint10_linear_253_4788" x1="44.2655" y1="28.1356" x2="44.2655" y2="31.7995" gradientUnits="userSpaceOnUse">
<stop stop-color="#DF327B"/>
<stop offset="1" stop-color="#88449A"/>
</linearGradient>
<linearGradient id="paint11_linear_253_4788" x1="44.402" y1="36.3792" x2="44.402" y2="40.0431" gradientUnits="userSpaceOnUse">
<stop stop-color="#DF327B"/>
<stop offset="1" stop-color="#88449A"/>
</linearGradient>
<linearGradient id="paint12_linear_253_4788" x1="44.3109" y1="30.8835" x2="44.3109" y2="34.5473" gradientUnits="userSpaceOnUse">
<stop stop-color="#DF327B"/>
<stop offset="1" stop-color="#88449A"/>
</linearGradient>
<linearGradient id="paint13_linear_253_4788" x1="44.2199" y1="25.3877" x2="44.2199" y2="29.0515" gradientUnits="userSpaceOnUse">
<stop stop-color="#DF327B"/>
<stop offset="1" stop-color="#88449A"/>
</linearGradient>
</defs>
</svg>
