<svg width="40" height="46" viewBox="0 0 40 46" fill="none" xmlns="http://www.w3.org/2000/svg">
<path d="M28.8705 16.957C29.2801 16.957 29.6134 16.6238 29.6134 16.2141V14.0142C29.6134 13.6045 29.2801 13.2713 28.8705 13.2713H11.3355C10.9258 13.2713 10.5925 13.6045 10.5925 14.0142V16.2141C10.5925 16.6238 10.9258 16.957 11.3355 16.957H28.8705Z" fill="url(#paint0_linear_253_2379)"/>
<path d="M9.24017 10.6258H26.7752C27.1849 10.6258 27.5181 10.2926 27.5181 9.88287V7.68304C27.5181 7.27343 27.1849 6.94019 26.7752 6.94019H9.24017C8.83056 6.94019 8.49731 7.27343 8.49731 7.68304V9.88287C8.49731 10.2926 8.83065 10.6258 9.24017 10.6258Z" fill="url(#paint1_linear_253_2379)"/>
<path d="M28.3685 4.29467C28.7782 4.29467 29.1114 3.96142 29.1114 3.55172V1.35189C29.1114 0.942193 28.7782 0.608948 28.3685 0.608948H10.8335C10.4238 0.608948 10.0906 0.942193 10.0906 1.35189V3.55172C10.0906 3.96142 10.4238 4.29467 10.8335 4.29467H28.3685Z" fill="url(#paint2_linear_253_2379)"/>
<path d="M7.21582 24.7361V22.2375H18.6057V24.7342C19.0282 24.6331 19.468 24.578 19.9207 24.578C20.3789 24.578 20.824 24.6344 21.2512 24.7378V22.2375H32.6256V24.7361C33.0503 24.6338 33.4928 24.578 33.9483 24.578C34.4038 24.578 34.8463 24.6338 35.2711 24.7361V20.9148C35.2711 20.1843 34.6788 19.592 33.9483 19.592H5.89307C5.16255 19.592 4.57031 20.1843 4.57031 20.9148V24.7361C4.99509 24.6338 5.4376 24.578 5.89307 24.578C6.34853 24.578 6.79104 24.6338 7.21582 24.7361Z" fill="url(#paint3_linear_253_2379)"/>
<path d="M5.89311 33.4166C7.57763 33.4166 8.9432 32.0302 8.9432 30.3201C8.9432 28.61 7.57763 27.2236 5.89311 27.2236C4.20859 27.2236 2.84302 28.61 2.84302 30.3201C2.84302 32.0302 4.20859 33.4166 5.89311 33.4166Z" fill="url(#paint4_linear_253_2379)"/>
<path d="M11.584 45.8471V41.3422C11.584 38.4307 9.21541 36.0621 6.30394 36.0621H5.48207C2.57051 36.0621 0.201904 38.4307 0.201904 41.3422V44.9937C0.201904 45.4643 0.584797 45.8471 1.05534 45.8471H11.584Z" fill="url(#paint5_linear_253_2379)"/>
<path d="M19.9202 33.4166C21.6047 33.4166 22.9703 32.0302 22.9703 30.3201C22.9703 28.61 21.6047 27.2236 19.9202 27.2236C18.2357 27.2236 16.8701 28.61 16.8701 30.3201C16.8701 32.0302 18.2357 33.4166 19.9202 33.4166Z" fill="url(#paint6_linear_253_2379)"/>
<path d="M25.6118 41.3422C25.6118 38.4307 23.2432 36.0621 20.3318 36.0621H19.5099C16.5983 36.0621 14.2297 38.4307 14.2297 41.3422V45.8471H25.6118V41.3422Z" fill="url(#paint7_linear_253_2379)"/>
<path d="M33.9483 33.4166C35.6328 33.4166 36.9984 32.0302 36.9984 30.3201C36.9984 28.61 35.6328 27.2236 33.9483 27.2236C32.2638 27.2236 30.8982 28.61 30.8982 30.3201C30.8982 32.0302 32.2638 33.4166 33.9483 33.4166Z" fill="url(#paint8_linear_253_2379)"/>
<path d="M34.3596 36.0621H33.5377C30.6262 36.0621 28.2576 38.4307 28.2576 41.3422V45.8471H38.7863C39.2569 45.8471 39.6397 45.4643 39.6397 44.9937V41.3422C39.6397 38.4307 37.2711 36.0621 34.3596 36.0621Z" fill="url(#paint9_linear_253_2379)"/>
<defs>
<linearGradient id="paint0_linear_253_2379" x1="20.1029" y1="13.2713" x2="20.1029" y2="16.957" gradientUnits="userSpaceOnUse">
<stop stop-color="#D7337D"/>
<stop offset="1" stop-color="#8C4498"/>
</linearGradient>
<linearGradient id="paint1_linear_253_2379" x1="18.0077" y1="6.94019" x2="18.0077" y2="10.6258" gradientUnits="userSpaceOnUse">
<stop stop-color="#D7337D"/>
<stop offset="1" stop-color="#8C4498"/>
</linearGradient>
<linearGradient id="paint2_linear_253_2379" x1="19.601" y1="0.608948" x2="19.601" y2="4.29467" gradientUnits="userSpaceOnUse">
<stop stop-color="#D7337D"/>
<stop offset="1" stop-color="#8C4498"/>
</linearGradient>
<linearGradient id="paint3_linear_253_2379" x1="19.9207" y1="19.592" x2="19.9207" y2="24.7378" gradientUnits="userSpaceOnUse">
<stop stop-color="#D7337D"/>
<stop offset="1" stop-color="#8C4498"/>
</linearGradient>
<linearGradient id="paint4_linear_253_2379" x1="5.89311" y1="27.2236" x2="5.89311" y2="33.4166" gradientUnits="userSpaceOnUse">
<stop stop-color="#D7337D"/>
<stop offset="1" stop-color="#8C4498"/>
</linearGradient>
<linearGradient id="paint5_linear_253_2379" x1="5.89296" y1="36.0621" x2="5.89296" y2="45.8471" gradientUnits="userSpaceOnUse">
<stop stop-color="#D7337D"/>
<stop offset="1" stop-color="#8C4498"/>
</linearGradient>
<linearGradient id="paint6_linear_253_2379" x1="19.9202" y1="27.2236" x2="19.9202" y2="33.4166" gradientUnits="userSpaceOnUse">
<stop stop-color="#D7337D"/>
<stop offset="1" stop-color="#8C4498"/>
</linearGradient>
<linearGradient id="paint7_linear_253_2379" x1="19.9208" y1="36.0621" x2="19.9208" y2="45.8471" gradientUnits="userSpaceOnUse">
<stop stop-color="#D7337D"/>
<stop offset="1" stop-color="#8C4498"/>
</linearGradient>
<linearGradient id="paint8_linear_253_2379" x1="33.9483" y1="27.2236" x2="33.9483" y2="33.4166" gradientUnits="userSpaceOnUse">
<stop stop-color="#D7337D"/>
<stop offset="1" stop-color="#8C4498"/>
</linearGradient>
<linearGradient id="paint9_linear_253_2379" x1="33.9486" y1="36.0621" x2="33.9486" y2="45.8471" gradientUnits="userSpaceOnUse">
<stop stop-color="#D7337D"/>
<stop offset="1" stop-color="#8C4498"/>
</linearGradient>
</defs>
</svg>
