<svg width="24" height="36" viewBox="0 0 24 36" fill="none" xmlns="http://www.w3.org/2000/svg">
<path d="M24 12.0175C24.0042 10.0762 23.5367 8.16285 22.6377 6.44194C21.7386 4.72103 20.4349 3.24397 18.8385 2.13767C17.2421 1.03137 15.4008 0.328913 13.4728 0.0906561C11.5447 -0.147601 9.58764 0.0854665 7.76965 0.769832C5.95165 1.4542 4.32711 2.5694 3.03562 4.01961C1.74412 5.46983 0.824286 7.21169 0.355147 9.09554C-0.113991 10.9794 -0.118406 12.9489 0.342283 14.8348C0.802972 16.7207 1.71499 18.4667 2.99997 19.9227V32.2527C2.99996 32.9586 3.19949 33.6501 3.57557 34.2477C3.95165 34.8453 4.489 35.3245 5.12572 35.6303C5.76243 35.936 6.47263 36.0558 7.17451 35.9759C7.87639 35.896 8.54141 35.6196 9.09297 35.1785L11.532 33.23C11.6649 33.1239 11.8299 33.0662 12 33.0662C12.17 33.0662 12.3351 33.1239 12.468 33.23L14.907 35.1785C15.4585 35.6196 16.1236 35.896 16.8254 35.9759C17.5273 36.0558 18.2375 35.936 18.8742 35.6303C19.5109 35.3245 20.0483 34.8453 20.4244 34.2477C20.8005 33.6501 21 32.9586 21 32.2527V19.9227C22.9324 17.7421 23.9995 14.9302 24 12.0175ZM12 3.02402C13.78 3.02402 15.5201 3.55147 17.0001 4.53968C18.4801 5.52789 19.6337 6.93248 20.3149 8.57581C20.9961 10.2191 21.1743 12.0274 20.827 13.772C20.4798 15.5165 19.6226 17.119 18.3639 18.3768C17.1053 19.6345 15.5016 20.4911 13.7558 20.8381C12.01 21.1851 10.2004 21.007 8.55582 20.3263C6.91129 19.6456 5.50568 18.4929 4.51675 17.0139C3.52781 15.535 2.99997 13.7962 2.99997 12.0175C3.00235 9.63297 3.95133 7.34684 5.63864 5.66076C7.32595 3.97468 9.61375 3.0264 12 3.02402ZM17.5755 32.9242C17.4486 32.987 17.3062 33.012 17.1655 32.996C17.0247 32.9801 16.8916 32.9239 16.782 32.8343L14.343 30.8857C13.6791 30.3513 12.8524 30.06 12 30.06C11.1476 30.06 10.3208 30.3513 9.65697 30.8857L7.21947 32.8343C7.10941 32.9225 6.97665 32.978 6.83645 32.9943C6.69625 33.0105 6.55431 32.9869 6.42693 32.9262C6.29956 32.8654 6.19192 32.77 6.11639 32.6509C6.04086 32.5317 6.00051 32.3937 5.99997 32.2527V22.3869C7.82092 23.449 9.89153 24.0086 12 24.0086C14.1084 24.0086 16.179 23.449 18 22.3869V32.2527C18.0016 32.3936 17.9624 32.532 17.8871 32.6512C17.8118 32.7703 17.7036 32.8652 17.5755 32.9242Z" fill="#AC2555"/>
</svg>
