<svg width="18" height="22" viewBox="0 0 18 22" fill="none" xmlns="http://www.w3.org/2000/svg">
<path d="M15.9618 5.10506C16.1206 3.63252 15.8387 2.58621 15.0327 1.63202C14.0665 0.48947 12.3248 0 10.0933 0H3.61875C3.39834 9.91529e-05 3.18519 0.0818269 3.01757 0.230506C2.84995 0.379185 2.73885 0.585074 2.70421 0.811199L0.00690632 18.5737C-0.00572961 18.6562 -0.000986618 18.7406 0.0208084 18.821C0.0426035 18.9014 0.0809314 18.9759 0.133148 19.0394C0.185364 19.103 0.250226 19.154 0.323257 19.1889C0.396288 19.2239 0.475751 19.242 0.556161 19.2419H4.20374L3.93639 21.0018C3.91765 21.125 3.92484 21.251 3.95745 21.3711C3.99007 21.4911 4.04734 21.6024 4.12533 21.6973C4.20331 21.7922 4.30015 21.8683 4.4092 21.9206C4.51824 21.9728 4.63688 21.9999 4.75697 22H8.12661C8.69439 22 9.17615 21.5738 9.26747 20.9949L9.30056 20.8162L9.93584 16.6323L9.97555 16.4069L9.97687 16.3972C9.99396 16.2832 10.0498 16.1793 10.1343 16.1044C10.2188 16.0295 10.3264 15.9885 10.4374 15.9889H10.9404C12.6159 15.9889 14.1499 15.6369 15.3675 14.7377C15.8691 14.3665 16.3098 13.9086 16.6817 13.3559C17.2994 12.4627 17.699 11.4271 17.8464 10.338C18.1667 8.62484 18.0185 7.09868 17.092 6.0015C16.8065 5.67043 16.4657 5.39563 16.0862 5.1903L15.9618 5.10643V5.10506ZM6.01297 12.1267C6.14412 12.0556 6.28985 12.0183 6.43782 12.0181H8.33837C12.0707 12.0181 14.9916 10.4452 15.8453 5.89151L15.8493 5.86951C16.1365 6.04 16.3787 6.24074 16.5745 6.47172C17.2972 7.32829 17.4732 8.58221 17.1701 10.1977C16.8101 12.1185 16.024 13.3697 14.9691 14.1492C13.9077 14.9329 12.5312 15.2698 10.9417 15.2698H10.4388C10.164 15.2694 9.89803 15.3708 9.6887 15.5558C9.47936 15.7407 9.34034 15.9971 9.29659 16.279L9.25688 16.5045L8.6216 20.6883L8.58984 20.8671L8.58851 20.8726C8.57088 20.9862 8.51483 21.0896 8.43041 21.1642C8.346 21.2388 8.23875 21.2797 8.12793 21.2795H4.75829C4.73792 21.2796 4.71778 21.2751 4.69927 21.2663C4.68076 21.2574 4.66432 21.2445 4.6511 21.2284C4.63787 21.2123 4.62818 21.1934 4.62269 21.1731C4.61721 21.1527 4.61605 21.1313 4.61932 21.1104L4.89461 19.2955L6.01297 12.1267Z" fill="white"/>
</svg>
