<svg width="34" height="35" viewBox="0 0 34 35" fill="none" xmlns="http://www.w3.org/2000/svg">
<path d="M14.2004 8.63478H25.957C27.1494 7.28883 28.3154 5.96539 28.7479 5.44666C30.103 3.8206 29.6397 2.36531 28.8316 1.61392C27.6379 0.504602 25.3315 0.402454 23.1972 1.91779C21.6314 0.420337 18.5275 0.418291 16.9597 1.91779C14.8254 0.402454 12.519 0.504669 11.3259 1.61392C10.5171 2.36531 10.0538 3.8206 11.409 5.44666C11.8426 5.96664 13.0093 7.29147 14.2004 8.63478Z" fill="#9040AC"/>
<path d="M33.3689 25.2602C32.2081 22.1479 28.0508 17.0206 25.9686 14.5668H14.1909C13.9029 14.9069 13.5746 15.299 13.22 15.7288C13.6623 16.2515 13.9292 16.9271 13.9292 17.6633V22.9151C15.2224 23.2934 16.3595 24.0395 17.221 25.0309C16.8869 24.3757 17.3622 23.5933 18.1016 23.5933H20.5734C20.8456 23.5933 21.0678 23.3719 21.0678 23.0997C21.0678 22.8275 20.8457 22.6054 20.5734 22.6054H19.5847C18.2216 22.6054 17.1128 21.4967 17.1128 20.1343C17.1128 18.9407 17.9631 17.9421 19.0903 17.7127V17.6633C19.0903 17.1176 19.5326 16.6746 20.079 16.6746C20.6248 16.6746 21.0671 17.1169 21.0678 17.6633H22.0565C22.6023 17.6633 23.0453 18.1055 23.0453 18.652C23.0453 19.1977 22.6023 19.6407 22.0565 19.6407H19.5847C19.3119 19.6407 19.0903 19.8621 19.0903 20.1343C19.0903 20.4065 19.3118 20.628 19.5847 20.628H20.5735C21.9359 20.628 23.0453 21.7366 23.0453 23.0997C23.0453 24.2933 22.1943 25.2919 21.0679 25.5213V25.5707C21.0679 26.1165 20.6249 26.5594 20.0791 26.5594C19.5327 26.5594 19.0903 26.1171 19.0903 25.5707H18.1016C17.8696 25.5707 17.6573 25.4909 17.4892 25.3578C19.6246 28.1391 19.3489 32.0733 16.8301 34.5327H26.8604C31.5934 34.5327 35.0683 29.8134 33.3689 25.2602Z" fill="#9040AC"/>
<path d="M15.7939 10.6122C15.2479 10.6122 14.8052 11.0548 14.8052 11.6009C14.8052 12.1469 15.2478 12.5896 15.7939 12.5896H24.3629C24.909 12.5896 25.3517 12.1469 25.3517 11.6009C25.3517 11.0548 24.909 10.6122 24.3629 10.6122H15.7939Z" fill="#9040AC"/>
<path d="M5.78957 26.5264H0.020752V29.557H5.08014C5.08792 28.4303 5.33003 27.4737 5.78957 26.5264Z" fill="#9040AC"/>
<path d="M11.9514 22.671V21.5838H0.020752V24.6151H7.18586C8.48139 23.363 10.1483 22.6888 11.9514 22.671Z" fill="#9040AC"/>
<path d="M5.34448 31.4684H0.020752V33.544C0.020752 34.1073 0.4791 34.5656 1.04243 34.5656H7.21991C6.31014 33.6786 5.69158 32.6687 5.34448 31.4684Z" fill="#9040AC"/>
<path d="M11.9514 17.6633C11.9514 17.0999 11.4931 16.6417 10.9297 16.6417H1.04243C0.4791 16.6416 0.020752 17.0999 0.020752 17.6633V19.6726H11.9514V17.6633Z" fill="#9040AC"/>
<path d="M11.9836 24.6149C9.24911 24.6149 7.02441 26.8394 7.02441 29.5738C7.02441 32.3039 9.2441 34.5326 11.9855 34.5326C14.7199 34.5326 16.9446 32.3081 16.9446 29.5738C16.9446 26.8394 14.72 24.6149 11.9836 24.6149Z" fill="#9040AC"/>
</svg>
